<svg width="274" height="31" viewBox="0 0 274 31" fill="none" xmlns="http://www.w3.org/2000/svg">
<path d="M162.487 27.7262C163.573 28.1801 159.836 27.5764 162.274 28.3367C161.748 28.3191 161.22 28.3026 160.694 28.2857C160.585 28.0829 160.473 27.8798 160.364 27.6761C161.07 27.6917 161.777 27.708 162.487 27.7252C162.487 27.7255 162.487 27.7259 162.487 27.7262ZM163.726 25.4856C163.021 25.9415 160.968 25.8612 163.107 26.5993C163.304 26.4353 163.505 26.2722 163.702 26.1093C164.448 26.3376 165.199 26.5645 165.945 26.7882C166.228 26.7499 166.51 26.7118 166.793 26.6749C167.105 27.0258 167.414 27.3752 167.726 27.7228C167.421 27.6445 167.112 27.5647 166.807 27.4858C165.548 27.6075 164.447 27.5637 162.774 27.4366C162.911 27.5274 163.049 27.6175 163.186 27.708C162.356 27.4922 161.526 27.2741 160.699 27.0548C161.446 27.0047 162.281 26.9515 162.973 26.9076C161.949 26.2893 160.003 26.3551 158.994 26.3547C157.62 26.3531 157.957 26.1419 156.938 26.1346C156.775 26.1332 156.734 26.3242 156.416 26.2932C154.811 26.1368 151.712 25.6929 153.588 25.4333C156.217 25.783 158.509 25.6745 161.079 26.0953C160.457 25.5091 161.84 25.4896 163.726 25.4856ZM134.372 16.2752C133.603 16.6711 131.963 16.7209 130.839 16.6303C130.838 16.6305 130.837 16.6306 130.836 16.6308C130.588 16.6104 130 16.2676 130.793 16.196C132.087 16.0798 132.774 16.6542 133.409 16.1434C133.721 16.1914 134.046 16.2291 134.372 16.2752ZM137.175 15.9307C137.982 16.0047 137.671 16.5374 136.666 16.5098C136.666 16.5102 136.666 16.5106 136.666 16.511C136.247 16.4996 137.022 16.0249 135.575 16.5776C135.242 16.3048 134.917 16.0601 134.589 15.7989C134.951 15.7537 135.282 15.709 135.663 15.6628C135.455 16.1932 136.367 15.8584 137.175 15.9307ZM152.221 25.5156C152.051 25.8793 152.573 25.9344 153.43 26.2893C152.593 26.1877 151.755 26.0851 150.922 25.9835C151.357 25.8261 151.787 25.6704 152.221 25.5156ZM171.912 27.7257C171.913 27.7258 171.915 27.726 171.916 27.7261C172.197 27.703 172.479 27.6801 172.757 27.6579C172.906 27.7953 173.054 27.9316 173.204 28.0682C174.188 28.0609 175.178 28.0563 176.161 28.0524C176 28.3959 174.265 28.1495 173.274 28.3011C171.859 28.0404 171.198 27.7523 171.143 27.4297C171.398 27.5283 171.653 27.6274 171.912 27.7257ZM234.334 6.59884C234.007 6.80206 233.685 7.00564 233.358 7.20926C233.792 7.3013 234.223 7.37131 234.661 7.47782C235.806 6.5941 235.913 7.37416 237.413 7.31713C242.011 7.14046 240.791 5.7887 244.943 7.76791C241.61 7.68108 242.891 8.61192 240.881 9.34081C240.464 8.79228 242.456 7.54938 241.107 7.29526C238.781 7.88044 236.545 8.42998 233.964 8.81628C234.04 8.91167 234.115 9.00738 234.19 9.10273C234.599 9.041 235.005 8.97898 235.414 8.91738C234.973 9.1745 234.541 9.4297 234.093 9.69046C234.66 9.10726 233.214 9.43738 233.408 8.76854C233.494 8.47081 234.133 8.05665 234.51 7.7721C233.537 7.61976 232.54 7.47997 231.556 7.33114C232.066 7.09294 232.575 6.85483 233.081 6.61735C233.497 6.6096 233.91 6.60397 234.326 6.59624C234.329 6.59711 234.331 6.59797 234.334 6.59884ZM25.0151 8.22393C26.2499 7.82986 28.4936 7.79812 29.6745 8.35231C28.1203 8.3109 26.5693 8.26867 25.0151 8.22393ZM171.081 27.1618C171.213 27.2365 171.34 27.31 171.472 27.3843C170.845 27.4257 170.215 27.4671 169.588 27.5109C169.491 27.3256 169.391 27.1396 169.291 26.9539C169.886 27.0228 170.486 27.093 171.081 27.1618ZM131.808 22.9839C132.259 23.0213 132.298 23.0327 132.853 23.1252C132.852 23.1249 132.852 23.1247 132.851 23.1244C133.071 23.1607 134.91 23.4893 134.684 23.6263C133.763 23.5275 132.782 23.4164 131.84 23.3124C131.824 23.2024 131.831 23.0956 131.808 22.9839ZM142.631 24.2845C142.632 24.285 142.634 24.2855 142.635 24.2859C142.967 24.3466 143.279 24.4294 143.623 24.4763C142.349 24.5814 142.205 24.1236 141.059 24.1213C139.914 24.1201 139.185 24.2907 138.299 23.5739C138.667 23.5226 139.067 23.4356 139.447 23.3716C141.022 23.7963 141.482 23.6161 142.798 23.529C142.742 23.7813 142.687 24.032 142.631 24.2845ZM254.803 8.57809C255.112 8.08843 255.456 8.56668 255.492 8.57224C255.491 8.57281 255.491 8.57338 255.49 8.57395C258.224 8.11244 255.134 8.84565 257.715 8.91137C257.331 9.03463 256.953 9.16484 256.573 9.28985C255.984 9.05737 255.377 8.79303 254.803 8.57809ZM202.456 10.0636C202.419 9.94542 202.377 9.82752 202.341 9.7094C203.886 9.57713 204.232 9.05748 205.556 9.35931C204.523 9.59618 203.49 9.83121 202.456 10.065C202.456 10.0645 202.456 10.0641 202.456 10.0636ZM125.63 18.6061C125.378 18.6591 125.136 18.7087 124.9 18.7545L124.868 21.4451C126.24 21.48 127.365 21.5914 128.733 21.9888C128.734 21.9894 128.735 21.9899 128.736 21.9904C128.829 22.0183 128.348 22.1581 128.466 22.2207C128.808 22.2304 129.163 22.2261 129.509 22.231C129.536 22.3896 129.562 22.5477 129.59 22.7052C128.632 22.5538 127.674 22.4018 126.713 22.2489C126.844 22.3557 126.98 22.4619 127.111 22.5684C126.323 22.5255 125.536 22.4833 124.748 22.4413L124.803 17.7558C124.84 17.7497 124.876 17.7436 124.913 17.7375C124.879 17.7747 124.846 17.8119 124.812 17.849L124.759 22.3483C125.034 22.1526 125.309 21.9575 125.581 21.7621C125.338 21.707 125.094 21.6523 124.85 21.5973L124.885 18.6019C125.133 18.6029 125.382 18.6041 125.63 18.6061ZM228.27 8.81584C227.985 8.7035 228.465 8.41896 228.032 8.34126C227.599 8.2653 226.847 8.6036 226.991 8.19218C227.553 8.08184 228.143 7.96066 228.716 7.84628C226.786 7.32584 224.993 8.1578 224.88 7.28878C226.687 7.32955 228.144 7.074 229.849 6.65059C229.845 7.35799 228.175 8.13566 229.327 8.68097C228.979 8.72497 228.612 8.77491 228.274 8.81393C228.273 8.81457 228.271 8.8152 228.27 8.81584ZM196.552 25.7655C197.6 25.9431 200.026 26.1644 201.332 26.5455C201.653 26.6406 202.671 27.3868 202.656 27.4623C202.592 27.7182 201.256 27.5739 202.662 27.9377C202.182 27.8747 201.715 27.8216 201.238 27.7621C201.302 27.9513 201.365 28.1395 201.426 28.3268C202.009 28.3757 202.593 28.425 203.177 28.4741C203.198 28.5356 203.22 28.5972 203.241 28.6587C201.155 28.39 202.359 28.7732 201.251 28.8471C202.235 29.0791 203.227 29.3087 204.208 29.5347C203.636 29.4516 202.961 29.3589 202.457 29.2814C202.353 29.571 203.569 29.6459 203.769 29.7255C204.897 30.1727 198.983 29.3066 198.443 29.6993C199.385 29.8586 200.374 30.0208 201.338 30.1795C201.053 30.2016 200.765 30.2237 200.48 30.2466C198.317 29.6941 195.864 29.2958 193.325 28.7937C193.092 28.7797 192.859 28.766 192.629 28.7519C192.679 28.9055 192.726 29.058 192.776 29.2111C192.424 29.1884 192.068 29.1651 191.717 29.1426C192.805 28.7785 191.378 28.6232 189.693 28.1175C190.629 28.0554 191.746 28.2961 191.707 27.97C188.535 27.8329 184.898 27.0244 181.806 26.9432C181.039 26.9238 180.988 27.366 179.208 27.1147C179.274 27.0727 179.295 26.9852 179.342 26.9253C176.23 26.7696 174.34 26.689 171.16 26.0786C171.325 26.2702 171.486 26.4615 171.651 26.6518C172.343 26.6464 173.035 26.6408 173.722 26.6372C174.152 26.9662 173.453 27.0086 175.486 27.2385C177.151 27.4271 176.174 27.1941 176.637 27.1662C177.263 27.1285 177.775 27.4044 178.45 27.3598C178.971 27.3267 178.446 27.0425 179.769 27.2546C179.2 27.4743 178.618 27.7051 178.045 27.9342C177.728 27.8335 177.414 27.7317 177.097 27.6295C177.435 27.5898 177.766 27.5509 178.104 27.5121C176.932 27.5169 175.824 27.524 174.611 27.5356C175.051 27.1573 173.797 27.1747 173.121 27.1494C172.067 27.1099 172.997 26.917 172.307 26.8879C171.616 26.8589 170.837 27.108 169.608 26.8978C170.295 26.7788 169.414 26.5022 169.61 26.3425C169.806 26.1829 171.119 26.2984 169.886 25.9545C167.451 25.8186 169.991 26.8102 168.345 26.7349C166.366 26.6515 166.038 25.458 166.652 25.2839C167.135 25.1474 168.712 25.3779 169.198 25.2463C166.407 24.5553 166.3 25.2316 165.799 25.3085C163.979 25.5885 165.32 24.4202 163.179 24.6412C163.248 24.3986 163.307 24.1802 163.374 23.9481C163.01 23.9479 162.764 23.978 162.325 23.9596C163.547 24.6026 162.501 24.4512 161.963 24.3867C161.115 24.2847 162.396 24.6813 162.164 24.7147C161.538 24.8051 160.589 24.6165 161.151 24.9014C160.899 24.7701 160.626 24.6354 160.367 24.5031C159.361 24.5046 156.903 25.2974 159.146 25.3386C158.892 25.7072 158.197 25.4377 157.645 25.3132C157.092 25.1889 157.072 25.4428 156.585 25.3404C154.65 24.9304 155.984 24.6385 156.335 24.3363C153.723 24.2661 156.234 24.7185 152.49 24.4453C152.095 24.6882 153.78 25.1837 152.327 25.1861C152.122 24.6648 151.11 24.1891 149.073 23.7809C148.86 23.8727 148.647 23.966 148.433 24.0585C147.366 23.4647 147.999 23.0424 145.851 23.3788C147.096 22.4392 146.246 23.0361 144.439 22.3715C144.072 22.2365 144.972 22.1194 144.459 21.9407C144.226 21.8596 143.625 21.9579 143.057 21.7541C142.78 21.6547 141.499 21.0649 140.553 21.1502C141.165 21.7668 139.356 22.0102 140.807 22.6315C138.039 22.1943 136.063 22.2172 139.267 21.8568C138.581 21.6087 137.895 21.3596 137.209 21.1091C136.702 21.1778 136.19 21.2459 135.679 21.3152C135.659 20.8569 135.749 20.7397 133.803 20.5788C134.657 20.576 135.506 20.5723 136.363 20.5715C136.402 20.4846 136.531 20.4055 136.514 20.3142C135.46 20.3548 132.541 20.0642 131.821 20.098C131.101 20.1319 132.459 20.3349 132.242 20.4274C130.432 21.1935 130.653 20.4925 129.419 20.5115C128.694 20.525 130.382 20.8397 129.996 20.8358C128.563 20.8219 127.971 20.2176 126.719 20.0565C127.127 20.4115 127.532 20.7689 127.93 21.1218C126.968 20.9962 125.923 20.8677 124.948 20.7895L124.964 19.4119C125.317 19.3629 125.66 19.3095 125.985 19.2504C126.462 19.1639 126.076 18.9736 126.153 18.9505C126.535 18.8332 128.108 18.5466 128.276 18.5283C129.539 18.3966 129.606 18.7116 130.836 18.6052C130.356 18.6811 129.905 18.7512 129.437 18.8247C129.273 19.3628 129.104 19.8998 128.94 20.4361C130.148 20.36 131.356 20.2836 132.567 20.2082C131.668 20.1165 130.765 20.0278 129.866 19.9398C131.205 19.3896 132.542 18.8313 133.879 18.2658C134.622 18.4542 135.363 18.645 136.107 18.8379C138.05 18.5784 137.552 17.5381 138.569 18.3906C139.136 18.2539 139.703 18.1166 140.27 17.9798C140.201 18.1238 140.133 18.2679 140.064 18.4116C140.749 18.2601 141.434 18.1085 142.118 17.9547C141.343 17.5427 140.579 17.1081 139.813 16.7175C141.165 16.4698 141.231 16.8765 141.445 16.9579C142.01 17.1738 143.045 16.6969 143.498 16.9051C143.651 16.9774 142.341 17.3844 142.832 17.6504C142.928 17.7 144.83 18.6798 145.946 18.3039C145.904 18.0953 145.79 17.8457 145.722 17.6214C147.244 17.3394 148.135 18.3704 147.962 18.7008C148.759 18.4062 149.953 18.2739 150.088 17.9156C150.505 17.8669 150.919 17.819 151.336 17.7703C150.982 18.6478 152.711 18.332 152.755 17.597C152.035 17.6485 151.314 17.6993 150.594 17.751C151.052 16.8183 148.818 16.5002 153.437 16.8681C154.35 17.245 151.888 16.9573 152.629 17.2332C153.877 17.3145 155.014 17.0323 156.214 17.2436C157.707 17.5095 155.957 18.0749 159.293 17.231C151.697 16.6545 160.232 16.2521 163.7 15.488C164.791 16.7 167.796 16.8465 171.838 16.0578C171.376 15.7245 170.111 16.0411 169.36 15.9899C168.609 15.9394 169.387 15.6412 168.449 15.5584C167.511 15.4757 165.532 15.4358 164.574 15.2713C165.344 14.986 169.193 14.0955 166.674 14.95C168.634 15.1212 169.574 15.4112 171.966 15.2466C172.624 14.592 172.536 14.2322 174.858 13.9799C173.563 14.935 176.26 15.2439 175.761 16.1497C174.093 16.1084 174.935 15.1988 173.943 14.8995C173.841 14.8701 172.325 15.2264 171.966 15.2466C173.588 15.8269 174.151 16.0549 173.282 17.0178C174.372 16.8397 175.065 16.8868 175.124 16.4577C175.371 16.6184 175.619 16.7795 175.861 16.9412C176.218 16.9038 176.538 16.8573 176.917 16.8258C176.333 16.2378 177.382 16.536 178.072 16.1795C178.762 15.8217 177.75 15.409 179.721 15.2126C179.049 15.1255 178.436 15.0551 177.786 14.9755C179.042 14.6875 180.301 14.3962 181.556 14.1046C180.625 13.7974 178.633 13.4106 178.636 12.8913C179.241 13.0258 181.213 12.4765 181.431 12.4391C182.275 12.298 181.844 12.6737 181.909 12.6751C183.26 12.6977 184.348 12.4726 184.904 12.9219C185.885 12.5943 186.655 12.6462 187.717 12.5257C188.302 12.4594 188.152 12.0997 188.502 12.1352C190.826 12.3731 188.703 13.0812 193.008 11.7126C192.45 11.505 191.899 11.2917 191.342 11.0839C191.828 10.9338 192.312 10.7832 192.799 10.6323C193.135 10.6451 193.469 10.6587 193.806 10.6718C193.854 11.2417 193.901 11.8129 193.949 12.3828C194.316 12.3774 194.685 12.371 195.052 12.3658C194.433 12.4844 193.812 12.6028 193.192 12.7208C193.145 12.8264 193.101 12.9316 193.054 13.0372C193.998 13.1004 194.938 13.1666 195.883 13.2333C195.881 13.0326 195.879 12.8306 195.878 12.6299C197.998 12.7 198.064 12.8679 200 12.118C201.533 11.9733 202.698 11.0039 203.549 10.5558C203.878 10.6371 204.207 10.72 204.54 10.8015C204.727 10.6118 204.916 10.4223 205.103 10.2321C205.529 10.4265 205.961 10.621 206.388 10.8156C206.561 10.2566 206.661 10.0761 205.068 10.05C205.542 9.3294 208.342 9.33368 209.492 9.44408C210.365 9.52752 209.47 10.186 209.584 10.243C209.964 10.4387 211.355 10.0963 211.655 10.1048C212.924 10.1393 213.8 10.0228 214.944 10.0347C215.167 10.0376 215.818 10.3363 215.872 10.3425C216.285 10.3636 217.307 10.4398 217.422 10.4336C223.344 10.121 216.891 9.17238 222.389 8.78537C222.204 8.59276 222.033 8.40041 221.852 8.20786C222.265 8.15264 222.682 8.09757 223.095 8.0423C223.636 8.16366 223.033 8.54752 224.05 8.18383C224.007 8.44953 223.964 8.71528 223.918 8.97983C224.358 8.79467 224.782 8.61191 225.232 8.42489C226.048 9.25066 228.728 9.19347 228.643 10.2766C228.614 10.6454 226.763 11.1957 227.798 11.4866C228.615 11.4861 228.025 11.1061 228.353 11.052C230.725 10.6663 230.645 11.2878 231.605 11.0332C231.733 10.7575 231.869 10.4756 232 10.1964C232.375 10.2377 232.752 10.2791 233.131 10.3205C233.199 10.1362 233.271 9.95123 233.34 9.76675C232.992 9.78859 232.601 9.81452 232.282 9.83364C232.659 9.11079 236.7 8.40072 235.204 9.13771C234.595 9.43666 233.427 9.44812 234.238 10.1848C235.316 9.96391 236.541 9.72564 237.676 9.49769C237.729 9.66926 237.779 9.84143 237.832 10.0131C239.367 9.75171 237.893 9.18554 237.859 8.81071C238.212 8.76558 238.568 8.72136 238.92 8.67618C239.087 8.83151 239.246 8.99565 239.419 9.14531C239.408 8.87326 239.544 8.22412 240.62 8.3544C241.313 8.44059 240.313 9.22949 241.595 9.00927C241.457 8.59424 240.94 8.12442 242.366 7.84536C242.552 8.27462 242.789 8.66173 242.945 9.11744C244.693 8.51731 245.574 9.12705 247.626 8.42509C248.928 7.98135 250.643 6.6703 251.674 8.32869C252.653 8.2807 252.301 7.87612 252.58 7.75042C253.896 7.15484 254.989 7.8857 255.248 7.91066C256.896 8.06849 257.593 7.70996 258.95 7.97785C258.847 7.65818 258.778 7.35292 258.69 7.04024C257.53 7.64661 256.916 7.68167 255.212 7.74113C255.774 7.62099 256.335 7.49914 256.897 7.37862C256.778 7.12353 256.661 6.86842 256.546 6.61458C251.41 8.16404 252.473 6.41405 256.827 5.61461C257.253 6.0656 257.693 6.51486 258.116 6.96941C260.58 5.97816 261.836 6.50511 264.719 6.38231C265.062 6.36703 266.276 5.96017 266.809 5.8936C266.8 5.89257 266.791 5.89153 266.782 5.8905C267.068 5.38891 266.597 5.21729 266.503 4.80372C266.787 4.72236 267.071 4.64111 267.355 4.55961C268.032 4.81501 267.831 5.10074 269.095 4.89848C268.892 4.59616 268.692 4.29378 268.49 3.99195C269.881 3.84054 270.827 4.09703 272.109 3.81677C271.902 3.95994 271.699 4.10308 271.493 4.24603C272.25 4.25347 272.66 4.40773 272.894 4.6089L273 6.7994C272.411 6.18221 273.211 5.34092 271.637 6.03595C271.501 5.87022 271.368 5.70278 271.232 5.53686C271.821 5.50976 272.411 5.48328 273 5.45669L273.024 5.9453C272.734 5.9868 272.444 6.0283 272.155 6.06987C272.16 6.30438 272.163 6.53802 272.171 6.77215C272.477 6.71982 272.783 6.66718 273.089 6.61441L273 4.78442C272.364 4.8314 271.727 4.87885 271.092 4.92545C271.727 4.78106 272.365 4.63689 273 4.49327L273.117 6.90419C273.064 6.92173 273.011 6.93926 272.958 6.95679C273.013 6.95717 273.068 6.95755 273.122 6.95793L273 4.43927C271.96 4.33074 270.919 4.2217 269.879 4.11227C271.042 4.979 269.535 5.08239 269.818 5.93958C267.88 5.22799 266.357 4.27865 263.353 4.88109C262.758 5.00115 263.081 5.6068 261.391 4.86887C261.8 5.83189 259.682 6.28522 259.954 7.20351C260.543 7.15812 261.153 7.12915 261.724 7.07401C261.074 6.75762 260.966 5.88205 261.953 5.62295C263.213 5.29325 265.05 5.89734 264.975 4.9314C265.477 4.97729 265.945 5.00448 266.433 5.04313C266.232 5.28208 266.035 5.52273 265.838 5.76207C267.226 5.3869 268.099 5.51015 268.766 6.11055C267.112 6.24977 265.461 6.38847 263.806 6.5281C264.05 6.56897 264.297 6.61012 264.541 6.6495C263.288 7.26927 264.58 7.8516 262.244 7.99082C262.258 7.70752 262.27 7.42403 262.284 7.13933C261.433 7.89824 259.104 7.90206 259.847 8.77375C259.144 8.50804 259 8.33812 258.602 8.81157C256.746 8.15409 255.555 7.31089 256.215 6.30271C255.526 6.46533 254.837 6.62861 254.151 6.79206C254.549 7.06767 254.948 7.34159 255.347 7.61638C254.148 7.60199 252.94 7.5878 251.745 7.57462C251.63 6.75542 254.052 7.3219 253.354 6.59186C253.214 6.44522 252.569 6.7604 252.399 6.67791C250.612 5.78394 253.418 6.42872 252.891 5.74355C250.227 5.53201 252.359 4.37988 248.69 5.34668C248.593 5.10922 248.489 4.86689 248.4 4.63072C247.126 4.61479 247.229 5.15202 246.135 5.25313C245.45 5.31644 244.589 4.36943 243.832 5.01325C243.697 5.13248 244.971 6.2887 242.294 6.23951C240.217 6.2012 241.082 5.38034 239.959 5.0888C238.835 4.7959 236.265 5.93798 235.508 4.6406C236.096 4.81305 236.846 4.9063 237.499 5.04742C237.765 4.79548 238.023 4.54646 238.285 4.29639C236.792 4.6198 235.249 4.2334 234.244 4.83528C232.252 3.91002 230.024 4.76425 230.627 5.81075C231.283 5.66003 230.569 5.2044 231.48 5.49488C231.573 5.7383 231.672 5.98044 231.765 6.22372C230.214 6.1951 229.137 6.20215 229.845 5.45883C229.604 5.44104 229.366 5.42328 229.125 5.40547C229.082 5.94364 229.044 6.48386 229.001 7.02215C228.714 7.08314 228.426 7.14369 228.138 7.20477C227.819 7.08691 227.499 6.96756 227.176 6.848C227.611 5.99418 228.35 5.96707 225.902 5.4894C225.895 5.78452 225.885 6.07848 225.878 6.37361C223.828 5.99965 223.774 5.28278 221.201 5.30844C223.175 4.28155 224.255 6.10271 224.248 4.04383C224.743 4.17974 225.243 4.31729 225.738 4.45284C225.813 4.1548 225.888 3.85639 225.96 3.55846C223.3 3.70742 218.883 5.67582 217.102 4.36569C216.887 4.52532 216.671 4.66413 216.452 4.8359C214.707 4.04235 213.954 5.82134 212.185 4.79483C212.002 4.68684 212.384 3.01336 210.081 3.06833C210.138 3.28643 210.168 3.65335 210.214 3.92836C209.716 3.79395 209.22 3.65319 208.724 3.51548C208.635 3.71688 208.541 3.91823 208.451 4.12122C209.302 4.2005 210.15 4.28094 211.001 4.35994C210.294 4.42827 209.582 4.49679 208.876 4.56536C209.798 4.8955 210.214 4.89889 209.658 5.42616C208.857 5.45756 208.056 5.49096 207.256 5.52249C207.173 5.65786 207.091 5.79485 207.009 5.93027C207.396 6.33395 207.788 6.72839 208.176 7.13738C206.09 6.80972 204.277 6.79364 202.676 5.99784C202.404 5.86339 203.368 5.33554 201.51 5.81165C201.481 5.53197 201.431 5.30484 201.399 5.04625C199.123 5.82911 198.376 5.59662 196.003 5.02778C197.539 5.55805 196.169 5.213 195.777 5.49688C195.509 5.69249 196.556 5.66363 196.437 5.86841C196.319 6.07156 194.959 6.89401 196.122 6.99194C198.972 5.30809 199.748 7.31752 203.409 6.50813C202.846 6.72447 202.278 6.94154 201.714 7.15838C201.98 7.3047 202.217 7.43738 202.504 7.59258C200.462 7.26713 201.456 7.47886 200.617 7.73876C199.777 7.99869 198.25 8.22137 197.227 8.29442C196.905 8.31735 197.245 7.9395 196.518 7.9054C196.022 7.88165 194.669 8.444 194.356 7.78384C194.152 7.35356 196.326 6.16904 193.32 6.17275C192.754 5.75095 194.195 5.88181 194.226 5.831C194.488 5.32969 192.64 4.95156 191.786 5.33481C191.716 5.36793 192.391 5.75926 191.657 5.91289C189.917 6.28013 188.911 5.83151 187.784 5.22239C187.662 5.93607 186.197 6.78999 184.374 6.5267C184.281 6.73145 184.192 6.93803 184.098 7.14436C184.382 7.03578 184.665 6.9287 184.948 6.82021C185.256 6.94838 185.583 7.04156 185.885 7.19252C184.051 7.36967 183.792 8.35613 182.913 8.71848C179.903 9.95722 181.727 7.34356 182.27 6.89397C182.661 7.07582 183.039 7.27873 183.427 7.46953C183.384 7.2203 183.34 6.96916 183.301 6.71837C178.796 6.72811 182.615 5.09966 180.328 4.63519C179.74 5.86297 178.061 5.98282 175.922 5.2014C175.685 5.20748 175.447 5.209 175.21 5.21663C175.171 5.39615 175.171 5.67057 175.107 5.78886C172.53 5.99828 172.071 4.09947 171.827 3.91928C170.743 3.12037 169.899 4.22404 169.579 4.23349C168.233 4.27127 167.842 3.78002 166.561 3.99012C165.183 4.21729 166.125 4.59484 165.706 4.93211C165.37 5.2 164.282 5.24756 163.833 5.5255C164.012 5.29816 164.21 5.07528 164.388 4.84718C162.96 4.5369 161.793 4.23404 160.171 4.1576C158.34 5.82289 156.783 3.01141 157.414 5.29184C158.951 5.44809 159.81 5.70792 160.631 6.28827C159.623 6.36254 158.614 6.43494 157.606 6.50933C157.311 6.25913 157.103 6.01523 156.754 5.76027C156.001 6.29191 154.254 6.06402 153.568 6.2201C150.355 6.95222 151.349 7.86109 148.417 6.33488C150.53 6.18579 150.527 5.44458 152.623 5.54682C152.171 5.01765 151.106 5.12703 151.795 4.49268C149.767 4.64842 150.423 5.21528 149.633 5.71838C148.953 6.15215 147.582 6.17662 147.66 6.74055C147.519 6.43053 147.411 6.13037 147.271 5.8207C145.958 5.82383 144.644 5.82406 143.331 5.82718C143.891 5.50323 144.451 5.17878 145.01 4.85657C144.587 4.73419 144.164 4.61225 143.74 4.48983C140.51 5.49716 134.94 3.64875 135.829 6.18234C134.272 6.26309 134.077 5.94531 133.23 5.46581C133.137 5.65819 133.046 5.81822 132.953 6.03234C131.948 5.83095 131.177 6.55334 130.29 6.36559C129.404 6.17928 129.184 5.49687 129.055 6.64391C128.48 6.31491 127.91 6.04158 127.339 5.73581C126.995 5.99641 126.651 6.254 126.31 6.51305C125.991 6.43202 125.671 6.35119 125.351 6.27032C125.132 6.21487 124.913 6.15939 124.694 6.10383C124.406 6.6514 122.289 6.41525 121.356 6.78244C120.47 6.19222 120.495 4.33554 118.41 4.66943C118.464 5.12945 118.517 5.58817 118.571 6.04827C118.094 5.95213 117.616 5.85636 117.135 5.76037C117.106 5.61034 117.081 5.4603 117.052 5.31027C117.296 5.35664 117.537 5.40279 117.781 5.45076C117.569 5.19678 117.362 4.94407 117.154 4.6903C116.425 5.06694 115.696 5.44314 114.964 5.81862C115.951 6.10306 116.938 6.38836 117.925 6.67388C116.686 7.01063 115.824 6.67351 114.748 7.04806C113.811 6.41358 114.157 6.04962 114.537 5.36205C114.189 5.42085 113.837 5.47756 113.489 5.53625C113.719 4.84929 113.13 4.44053 115.165 4.49393C115.025 4.29789 114.882 4.11104 114.746 3.90742C114.412 3.93881 114.196 3.77347 113.83 3.84968C112.832 4.05868 112.067 5.26432 112.135 5.68648C112.172 5.90782 113.156 5.48443 113.116 5.79749C113.019 6.56142 110.762 6.21568 114.017 6.98617C112.937 7.47119 112.695 7.10375 111.504 6.96203C111.597 7.21617 111.688 7.46877 111.777 7.72305C111.225 7.60476 110.671 7.48704 110.119 7.36906C110.887 6.06519 106.813 5.5798 110.48 4.43698C109.397 4.38016 108.317 4.32342 107.236 4.26442C107.459 4.13068 107.682 3.99817 107.904 3.8642C108.392 3.93348 108.877 4.0018 109.365 4.06991C108.791 3.82687 108.216 3.58588 107.642 3.34414C106.285 3.65072 105.753 4.11564 105.132 4.68786C106.711 5.10259 106.196 4.53365 107.426 4.41766C107.383 4.7807 107.44 5.11454 107.332 5.4959C106.696 4.74464 104.623 5.29346 104.142 5.32971C102.678 5.44169 103.826 4.70656 102.847 4.69276C101.867 4.67993 100.711 5.11563 99.9108 4.39438C99.9252 4.79954 99.9892 5.21869 100.047 5.58773C98.5212 5.72088 98.8255 5.24323 98.6676 5.18154C96.1479 4.17038 94.7807 5.03242 91.8985 5.13685C92.2646 5.25937 92.6344 5.37028 93.0041 5.48609C90.8297 6.33148 92.2945 6.07119 94.1823 6.35496C92.4127 6.26783 91.3994 6.98477 90.1503 7.19111C88.9014 7.39722 86.7596 7.0205 85.9768 6.73619C87.7679 6.28658 89.6996 6.5914 91.6881 6.46949C91.4621 6.06443 91.2424 5.72218 91.0091 5.27874C89.7997 6.12642 89.0989 5.55935 88.7005 5.44888C87.5306 5.12336 87.5674 5.84256 86.8605 5.07042C86.8892 5.33614 86.9102 5.55961 86.9389 5.80791C84.5234 5.69343 81.9179 5.23918 80.3458 6.19685C80.2022 5.57294 80.0939 4.97266 79.9288 4.33802C78.906 4.81108 78.0301 4.33653 77.1688 4.4505C76.311 4.56334 76.6375 5.0586 75.6291 5.25121C75.4424 5.28633 75.0537 4.97879 74.5943 5.20726C74.1304 5.44089 72.4195 7.11919 72.2149 5.6507C71.3499 5.64396 70.5314 5.59092 69.6844 5.56705C70.5098 5.48483 71.3356 5.40419 72.1575 5.32005C71.4541 4.96594 70.755 4.61646 70.0516 4.26975C69.9619 4.58401 69.8719 4.90351 69.7858 5.21284C67.8906 5.59619 66.5154 5.09114 64.6023 5.21682C64.2829 5.2372 65.0365 5.83881 63.6192 5.68557C62.2015 5.52933 61.1494 4.43413 58.7342 4.87185C58.6121 4.89577 57.8969 5.72354 57.0319 5.15541C56.835 5.02765 57.6635 4.83205 57.2117 4.66511C56.7594 4.49804 54.7415 4.37693 54.5836 3.98344C54.6051 4.12358 54.731 4.26781 54.7921 4.41043C54.4476 4.48075 54.0996 4.55069 53.7516 4.61886C53.7193 4.37321 53.6844 4.1274 53.6521 3.88334C51.6709 4.48352 50.647 5.3931 47.7113 5.10679C48.5367 5.44383 49.3625 5.7892 50.1844 6.13977C50.4105 5.89622 50.637 5.64974 50.8596 5.40365C52.2125 5.49856 53.5692 5.59585 54.9222 5.69672C55.1447 5.40886 55.3633 5.12051 55.5859 4.83C55.9447 4.8654 56.3 4.89993 56.6589 4.93591C56.5692 5.14694 56.4787 5.3565 56.3854 5.56677C57.0959 5.51454 57.8073 5.46045 58.5142 5.40677C57.075 6.65937 54.495 5.30519 54.6812 6.33571C54.3619 6.17515 54.0422 6.01453 53.7229 5.85488C53.5829 6.34894 52.9336 6.20295 51.7892 6.12286C52.0512 6.36366 52.3405 6.60281 52.581 6.84871C51.4683 6.49931 49.4946 6.5215 48.3425 6.38739C47.8364 6.32909 48.3419 5.98813 48.1914 5.94709C47.4197 5.73704 45.9447 6.32581 45.636 6.2758C43.7912 5.98419 42.5924 4.91364 40.5788 5.62403C42.657 5.79731 41.5264 5.72342 42.2658 6.11956C42.4973 6.24283 45.1821 6.5214 41.8201 6.38441C41.426 6.35577 35.3258 5.62537 37.331 5.08493C36.344 5.26504 35.5711 5.46612 34.6666 5.64638C32.4556 4.26819 33.2208 5.56086 33.8633 6.27953C33.5008 6.28036 33.1559 6.28537 32.7826 6.28294C33.5759 5.53419 29.5346 5.50598 28.1635 5.85954C27.7041 5.97545 28.9886 6.20861 27.9263 6.30812C27.4204 6.25499 26.8465 6.18799 26.312 6.13113C27.0872 6.57414 25.5657 6.72711 25.587 7.16352C24.6144 6.75067 23.8705 5.93965 24.405 5.49763C23.6011 5.67891 22.7931 5.85416 21.9893 6.02449C22.3625 6.1253 22.7406 6.22684 23.1139 6.33078C20.4865 6.05508 17.1083 6.58463 16.5591 5.77202C16.2109 5.77736 15.8591 5.78184 15.5109 5.78699C15.4032 5.92086 15.2992 6.05429 15.1915 6.18672C13.6162 6.05815 12.0444 5.93785 10.469 5.82786C11.8717 5.75623 12.2056 5.57145 13.6766 5.72021C13.1098 5.57065 12.5324 5.42486 11.9763 5.28431C9.76169 5.68917 9.45958 5.91522 6.1253 5.80199C5.97455 5.79303 3.45523 5.51378 3.36909 5.49173C2.97443 5.37311 3.57351 5.19154 3.39778 5.13152C2.91431 4.95814 7.40153e-06 4.62246 0 4.56409C0 4.56409 0 4.56409 0 4.56409C7.28048e-08 4.56346 0.000272742 4.56284 0.000822845 4.56225C0.725874 3.8271 10.7059 3.29278 13.405 3.13012C41.4014 1.1537 68.7813 1.30168 96.6019 0.853562C96.8879 0.84672 96.763 0.567883 96.8849 0.554417C97.6421 0.474559 98.3857 0.904303 98.6657 0.919705C99.2638 0.950822 98.9344 0.54869 99.3714 0.543595C103.887 0.498069 108.148 0.70654 112.667 0.612597C112.961 0.60647 112.66 0.939568 113.177 0.878487C113.444 0.845208 114.279 0.33193 114.882 0.321411C116.985 0.285712 118.752 0.443773 120.97 0.431876C122.18 0.424905 123.995 0.466434 125.351 0.459023C125.354 0.459007 125.357 0.458992 125.359 0.458976C125.958 0.455677 126.583 0.22148 127.174 0.213707C128.014 0.202923 127.843 0.677716 127.972 0.707223C128.539 0.836104 128.618 0.314993 129.156 0.32749C130.157 0.352523 130.211 0.700436 131.482 0.671288C132.39 0.649774 134.468 0.375877 135.613 0.295791C138.291 0.700444 141.665 0.542437 144.163 0.411418C145.642 0.333753 145.779 0.820192 146.382 0.819168C148.506 0.811615 150.119 0.192756 152.114 0.175332C154.762 0.152706 157.109 0.565901 159.675 0.599202C160.091 0.604477 159.996 0.160327 160.404 0.149645C161.915 0.110536 163.847 0.0334983 165.193 0.0994062C166.693 0.171944 167.247 0.815868 168.715 0.687751C169.145 0.649724 169.271 0.0866942 169.992 0.0160513C171.144 -0.0949335 172.407 0.40424 173.211 0.461301C174.313 0.537545 173.355 -0.0374784 174.841 0.0430164C174.902 0.046494 175.124 0.456233 175.443 0.437446C176.373 0.384377 176.281 0.0620975 177.641 0.0963473C177.772 0.100987 179.575 0.494885 179.755 0.496834C180.81 0.50566 182.934 0.647215 183.559 0.566337C185.792 0.2788 184.034 -0.337936 185.933 0.99613C186.769 0.673064 187.598 0.346045 188.484 0.0332985C187.893 0.325922 190.293 0.757624 190.462 0.730581C191.857 0.51382 191.026 -0.00408173 192.795 0.0871253C190.459 1.26948 195.078 0.247366 196.108 0.221365C201.068 0.0920286 205.577 0.404737 210.563 0.417207C212.232 0.420825 214.468 0.182711 216.234 0.196972C216.645 0.199215 216.334 0.474569 216.697 0.482135C217.058 0.487827 216.657 0.175438 217.07 0.193775C219.636 0.314006 221.646 0.905411 223.997 0.188568C224.112 0.294384 224.108 0.377528 224.298 0.494006C226.222 -0.147938 229.927 0.746354 231.319 0.871417C233.497 1.06726 234.054 0.63318 235.636 0.729527C237.729 0.858374 240.87 1.72149 239.467 0.314645C240.903 0.279017 242.285 0.275393 243.735 0.413563C243.896 0.429203 243.785 0.782696 243.849 0.790337C244.258 0.843385 244.392 0.527221 244.668 0.514316C245.417 0.479527 244.194 0.851782 245.263 0.751841C245.826 0.698286 246.146 0.4242 247.711 0.42801C255.835 0.451539 264.558 0.579362 273 0.688154L273.486 10.6914C272.13 10.8057 270.783 10.9197 269.446 11.0335C268.784 11.0902 269.251 11.3774 268.42 11.4307C265.531 11.6147 260.321 11.5336 257.843 11.8311C255.366 12.1274 255.972 12.5445 254.436 12.8771C254.139 12.9415 254.36 12.6542 254.088 12.6742C252.258 12.8113 250.04 12.5928 248.554 12.6636C247.571 12.7097 247.69 13.1158 247.013 13.2053C246.006 13.3372 244.924 13.0139 244.383 13.0489C241.839 13.2169 240.126 13.7032 237.74 13.7439C237.841 13.825 237.91 13.9022 237.997 13.9833C235.189 14.2158 232.385 14.4476 229.577 14.6794C229.717 14.7481 229.853 14.8178 229.993 14.8879C226.695 15.1305 226.987 14.2328 227.455 16.0352C227.221 16.12 226.975 16.2162 226.751 16.2947C226.753 15.3456 224.694 14.8316 222.136 14.8196C221.948 14.8188 220.789 15.834 220.821 14.7521C220.521 15.0427 220.345 15.24 220.092 15.4936C219.524 15.217 218.949 14.946 218.382 14.6729C218.097 14.7468 217.808 14.8192 217.523 14.8929C217.501 15.1048 217.555 15.3181 217.482 15.5306C216.14 15.6793 213.358 15.6651 212.298 15.7848C209.666 16.0842 207.033 16.8645 204.922 16.4517C203.928 16.599 204.96 16.9092 203.468 16.9874C203.28 16.8017 203.104 16.6238 202.908 16.4331C201.78 17.4319 201.473 16.9092 199.79 16.8698C198.651 16.8424 197.935 17.1227 196.858 17.1737C196.585 17.1865 196.598 16.9251 196.413 16.9498C195.793 17.0314 194.051 17.5395 193.612 17.5866C189.637 18.0234 186.211 18.2767 182.408 18.5119C181.999 18.5376 182.552 18.7373 182.129 18.763C181.448 18.8046 181.811 18.3946 181.416 18.4102C180.314 18.4559 180.344 18.8517 178.816 19.0026C173.783 19.4979 167.961 19.7013 162.694 20.1272C162.53 20.1412 162.561 20.3594 162.382 20.3767C161.218 20.4855 160.009 20.2915 158.951 20.3854C157.195 20.5401 155.905 20.9534 154.17 21.0975C150.779 21.3808 147.734 21.4849 144.246 21.7707C141.391 22.0038 138.915 22.2389 135.784 22.4997C132.322 22.7884 128.844 23.1182 125.358 23.4592L125.437 16.7526C135.691 17.9849 146.041 19.1712 156.233 20.7974C156.58 20.8529 156.421 20.9774 156.528 20.9858C157.545 21.0623 157.659 20.8826 157.969 21.3359C159.265 21.432 159.708 21.1878 161.258 21.4256C162.085 21.5521 161.411 21.9261 162.841 21.8823C164.132 21.8436 162.766 21.4029 166.496 22.1796C166.595 22.2006 167.052 22.5405 167.843 22.5775C168.637 22.6167 167.751 22.2963 169.65 22.5033C174.106 22.9942 179.699 24.0068 184.869 24.6651C185.193 24.7059 188.323 25.0185 188.945 25.0493C190.149 25.1068 189.921 24.8986 191.471 25.0807C192.669 25.2225 193.631 25.5561 195.039 25.7204C195.203 25.7393 195.5 25.5859 196.552 25.7655ZM229.129 7.48933C228.835 7.93783 228.304 9.5911 226.524 9.09418C226.355 9.04703 227.266 7.90751 226.283 7.72847C227.245 7.60659 228.182 7.56611 229.129 7.48759C229.129 7.48817 229.129 7.48875 229.129 7.48933ZM203.687 31.0072C202.367 30.8303 201.042 30.6519 199.723 30.4725C200.646 30.4921 201.57 30.5138 202.489 30.5362C202.889 30.6945 203.286 30.8513 203.687 31.0072ZM210.778 9.50505C210.777 9.50518 210.776 9.50531 210.774 9.50544C212.15 9.18351 213.525 8.8595 214.9 8.53429C214.767 8.6826 214.633 8.83139 214.5 8.97943C213.42 9.30193 212.341 9.62269 211.265 9.94177C211.103 9.796 210.94 9.6505 210.778 9.50505ZM199.909 11.9943C199.005 11.9301 199.197 11.6515 198.684 11.4507C198.684 11.4512 198.684 11.4516 198.684 11.4521C198.549 11.4 197.942 11.4041 197.708 11.418C197.81 11.5695 197.936 11.7167 198.044 11.8665C196.006 12.4564 191.817 11.5082 197.015 10.4105C196.956 10.6208 196.9 10.8296 196.841 11.0397C199.446 10.713 202.399 10.8626 199.909 11.9943ZM208.032 8.24998C205.792 9.08243 205.074 9.26134 202.357 8.69733C202.741 8.46087 203.125 8.22462 203.509 7.98853C203.957 8.22796 204.403 8.46553 204.851 8.70449C204.852 8.70448 204.854 8.70448 204.855 8.70448C204.945 8.45229 205.035 8.19971 205.121 7.94762C206.09 8.04863 207.063 8.14948 208.032 8.24998ZM135.263 22.3183C135.763 23.3783 135.654 22.7822 133.855 22.8041C133.232 22.8123 133.809 23.0544 133.424 23.0404C131.343 22.9691 131.26 22.2752 131.763 21.978C132.932 22.09 134.112 22.2058 135.259 22.3178C135.26 22.318 135.262 22.3181 135.263 22.3183ZM188.731 28.3859C188.733 28.3861 188.734 28.3862 188.735 28.3864C188.767 28.5678 187.931 28.5202 188.848 28.7939C188.135 28.712 187.422 28.6292 186.706 28.5468C186.918 28.5542 187.135 28.5629 187.347 28.5704C187.169 28.4883 186.99 28.405 186.812 28.3223C186.534 28.4979 186.314 28.3523 185.573 28.1964C185.753 28.4411 185.932 28.6849 186.113 28.9276C185.25 28.7657 184.385 28.6019 183.523 28.4374C183.519 28.3797 183.515 28.3219 183.511 28.2643C183.174 28.2992 182.841 28.3357 182.504 28.3716C182.423 28.2938 182.345 28.2167 182.264 28.1386C181.862 28.1452 181.46 28.1521 181.058 28.1602C180.957 27.9803 181.838 28.0079 180.287 27.8741C180.782 27.7567 181.276 27.6414 181.774 27.5279C184.093 27.8142 186.412 28.1005 188.731 28.3859ZM130.669 18.1778C128.113 18.4853 128.818 18.2456 129.36 17.6588C129.795 17.8309 130.234 18.0035 130.669 18.1778ZM262.64 5.43032C263.333 4.84648 264.03 4.26565 264.742 3.69442C266.228 3.25375 267.834 4.03686 266.731 4.51821C265.402 5.09458 263.922 4.74695 262.64 5.43032ZM248.623 7.27583C250.485 7.52123 248.733 8.16233 248.314 8.5365C247.798 7.93984 247.08 7.99425 245.927 7.92752C247.01 7.88552 248.316 7.23387 248.623 7.27413C248.623 7.27469 248.623 7.27526 248.623 7.27583ZM232.77 7.85424C232.029 7.94365 231.303 8.15256 230.623 8.05593C230.779 7.5751 232.147 7.85939 231.131 7.27237C231.605 7.21208 232.079 7.15208 232.549 7.09081C232.277 7.4054 232.701 7.57654 232.767 7.85289C232.768 7.85334 232.769 7.85379 232.77 7.85424ZM155.43 15.1849C156.93 15.4807 157.187 15.2633 158.624 14.7976C158.867 15.1448 157.177 15.9383 156.094 16.1815C155.874 15.8486 155.653 15.5162 155.43 15.1849ZM44.5515 7.59683C44.9031 7.10384 47.4973 7.06264 48.7862 7.23154C48.6327 7.30663 48.4787 7.38246 48.3252 7.45814C47.069 7.50686 45.8077 7.55314 44.5515 7.59683ZM245.378 7.88604C245.571 7.90412 245.754 7.9175 245.927 7.92752C245.734 7.9349 245.549 7.92459 245.378 7.88604ZM167.408 5.10244C168.022 4.46973 166.198 4.25627 168.412 4.50522C168.412 4.50462 168.412 4.50401 168.412 4.5034C169.877 4.66726 170.2 4.71088 171.557 4.76063C171.068 5.57204 168.316 5.86302 172.11 6.03014C172.16 6.03088 172.06 5.54793 172.666 5.61401C172.853 5.63457 173.452 6.03078 174.363 6.14576C174.657 6.1826 176.869 6.30407 173.854 6.31256C173.944 6.87785 173.782 7.45015 173.789 7.99862C172.612 8.15938 171.708 7.05235 170.463 7.08005C168.614 7.1239 167.674 8.24703 167.318 6.77471C168.873 6.41227 171.542 6.40335 171.89 7.28688C173.393 7.29649 173.825 6.57287 172.613 6.21498C167.419 6.67157 171.187 5.13944 166.639 5.71829C166.585 5.92313 166.398 6.14363 166.427 6.33618C165.039 5.61533 167.189 5.32865 167.408 5.10244ZM178.268 6.66395C177.371 7.09518 176.477 7.53041 175.583 7.96421C175.583 7.26116 176.076 6.6298 177.49 6.23377C177.748 6.37776 178.01 6.5216 178.268 6.66395ZM102.786 6.83925C102.656 7.21772 102.312 7.56357 102.061 7.92245C101.788 7.60114 95.327 7.27503 98.614 6.97562C99.0914 6.93054 102.003 7.60817 102.786 6.83925ZM145.354 16.6231C146.127 16.7166 146.898 16.8121 147.668 16.9088C146.519 17.1354 145.369 17.3636 144.22 17.5895C144.599 17.2686 144.975 16.9466 145.354 16.6231ZM270.899 6.38398C271.22 6.39668 270.153 6.8801 271.419 6.8022C270.475 7.11162 269.591 7.37472 268.669 7.66798C268.392 7.44008 268.113 7.21285 267.837 6.98442C267.621 7.13176 267.402 7.27836 267.186 7.42596C267.315 7.09187 267.431 6.76576 267.567 6.42635C269.121 7.13924 269.477 6.32845 270.899 6.38398ZM229.151 10.5409C228.808 9.90506 231.01 9.28954 228.796 9.40024C229.171 8.92328 229.821 8.6271 231.107 8.45916C231.33 8.60596 231.553 8.75178 231.776 8.89899C231.761 8.44742 232.076 8.24777 232.77 7.85424C232.77 7.85469 232.771 7.85514 232.772 7.85558C234.728 7.62543 234.626 7.78721 235.169 8.48293C233.054 8.27019 233.057 8.95425 231.682 9.49304C230.737 9.86324 229.456 9.86252 229.151 10.5409ZM109.669 6.84235C108.195 7.50533 109.518 8.12697 106.902 7.41509C107.07 7.24707 107.24 7.08035 107.409 6.91207C108.162 6.88734 108.916 6.86432 109.669 6.84235ZM221.688 8.99668C221.955 9.99048 223.414 10.6468 223.489 8.97041C222.109 8.77014 222.858 9.6376 221.688 8.99668ZM249.258 5.47577C251.86 5.53071 251.369 6.82215 250.299 7.47217C250.134 7.23694 249.969 7.00114 249.807 6.76708C249.352 6.87466 248.896 6.98263 248.44 7.08911C248.713 6.5513 248.986 6.01255 249.258 5.47577ZM176.146 14.6138C178.062 13.7722 173.975 14.4697 175.319 13.93C176.391 13.4966 177.908 14.0001 177.398 14.4637C177.017 14.5129 176.592 14.5629 176.15 14.6135C176.149 14.6136 176.147 14.6137 176.146 14.6138ZM187.579 13.2922C187.185 12.614 187.673 12.7747 186.122 13.059C185.679 13.1397 182.106 13.2317 183.652 13.6649C184.92 13.5389 186.26 13.416 187.579 13.2922ZM219.181 6.79119C219.157 6.39696 221.903 5.53331 222.255 5.74931C222.255 5.74872 222.255 5.74814 222.255 5.74755C223.206 6.33469 220.31 6.4202 221.566 7.22618C218.785 6.51842 217.953 8.24122 218.146 5.9714C219.785 5.87155 219.009 6.33919 219.181 6.79119ZM10.4901 6.00194C10.4888 6.00193 10.4875 6.00193 10.4863 6.00192C10.6706 6.00999 12.1897 6.31407 12.0049 6.41576C10.1782 6.30316 10.5037 6.12917 8.80308 6.40792C8.70984 6.31035 8.62996 6.21631 8.52956 6.11901C9.20436 6.0683 9.5784 5.95227 10.4901 6.00194ZM95.8004 6.02536C96.4716 5.92209 97.6965 6.35294 98.461 6.32878C96.0275 7.97489 93.1195 6.42945 95.8004 6.02536ZM163.731 25.4853C163.729 25.4854 163.727 25.4855 163.726 25.4856C163.726 25.4852 163.727 25.4848 163.728 25.4844C163.729 25.4847 163.73 25.485 163.731 25.4853ZM147.813 7.05657C147.726 6.9462 147.677 6.85031 147.66 6.76613C147.66 6.75821 147.66 6.7503 147.66 6.74238C147.706 6.84574 147.756 6.95028 147.813 7.05657ZM213.476 6.91574C212.332 6.3643 216.142 5.48716 217.374 5.69664C217.288 5.94759 217.274 6.17508 217.073 6.46349C216.079 5.81344 213.666 7.00785 213.476 6.91574ZM245.709 7.44725C248.708 7.16601 244.996 9.48921 244.685 7.95752C244.688 7.92715 245.632 7.45771 245.709 7.44725ZM237.224 6.66622C237.991 6.02079 236.449 5.85026 238.915 5.96091C239.058 6.12764 239.201 6.29469 239.345 6.46128C238.638 6.52914 237.931 6.59806 237.224 6.66622ZM265.598 8.13924C269.338 7.44574 272.887 6.49226 270.266 5.04413C269.986 5.12648 269.701 5.20737 269.421 5.28959C269.458 6.11583 268.361 5.76978 266.816 5.89448C266.628 6.24107 265.78 6.39938 265.647 6.69058C265.388 7.25311 266.408 7.53415 265.598 8.13924ZM143.873 22.1505C143.801 22.2304 143.731 22.3109 143.66 22.3901C143.053 22.4166 142.445 22.4433 141.837 22.4716C141.954 22.314 142.071 22.1566 142.188 21.9995C142.749 22.0495 143.308 22.0992 143.869 22.1495C143.87 22.1499 143.871 22.1502 143.873 22.1505ZM181.962 4.75159C181.618 6.45324 182.821 6.13854 185.261 5.28029C184.163 5.10435 183.06 4.92811 181.962 4.75159ZM204.907 13.2957C204.791 12.916 204.676 12.5375 204.556 12.1585C203.306 12.6876 203.588 13.1045 204.256 13.5579C204.475 13.4706 204.689 13.3832 204.907 13.2957ZM186.342 15.2157C186.884 15.2423 186.582 14.9698 186.639 14.9705C188.008 14.9986 188.213 15.1193 189.852 14.7356C190.048 14.6373 190.24 14.5351 190.436 14.4341C189.592 13.7263 189.076 14.2054 187.406 13.9069C187.725 14.1444 188.042 14.383 188.362 14.623C187.452 14.6529 186.547 14.6836 185.638 14.7143C185.538 14.8062 185.439 14.8973 185.34 14.9891C185.671 15.0634 186.015 15.1499 186.342 15.2157ZM150.724 23.2327C151.598 23.3606 152.475 23.4896 153.349 23.6169C153.398 23.4867 153.445 23.3556 153.493 23.2255C152.571 23.2264 151.646 23.2285 150.724 23.2327ZM163.833 5.5255C163.763 5.61466 163.695 5.70437 163.634 5.79562C163.64 5.68442 163.717 5.59761 163.833 5.5255ZM8.16041 5.35863C7.15917 5.28618 5.71635 5.35035 4.61809 5.34281C4.70443 5.60807 7.49581 5.52287 8.47601 5.69714C8.63351 5.64522 8.58364 5.38907 8.16041 5.35863ZM252.858 5.52858C253.109 5.23473 253.36 4.94255 253.608 4.64925C254.215 4.6817 254.822 4.71585 255.433 4.74817C255.451 4.50833 255.468 4.26643 255.486 4.02662C252.798 4.33313 253.418 3.64219 252.087 2.95312C252.346 3.81191 252.6 4.66994 252.858 5.52858ZM178.704 25.8657C176.768 25.7013 176.066 25.7702 177.109 26.2611C177.799 26.2624 178.493 26.2652 179.183 26.2688C179.022 26.1347 178.861 26.0001 178.704 25.8657ZM128.469 4.93846C126.887 5.22141 126.82 4.23913 125.351 4.72559C125.312 4.73869 125.271 4.75286 125.229 4.76815C125.27 4.77734 125.31 4.78653 125.351 4.79573C126.161 4.97917 126.971 5.16439 127.777 5.34766C128.006 5.21159 128.241 5.07454 128.469 4.93846ZM208.164 2.18206C207.479 1.82737 206.197 3.50089 204.27 2.25832C203.81 2.62699 203.523 2.97978 203.128 3.34166C202.898 2.94694 202.637 2.54691 202.418 2.15485C202.417 2.15484 202.416 2.15484 202.414 2.15484C200.666 2.28361 201.8 2.7816 201.76 3.20027C201.742 3.37392 200.444 3.08132 200.85 3.46017C201.55 4.11029 204.165 3.74062 204.172 4.53024C203.253 4.27128 201.459 4.48543 201.99 5.01353C202.571 5.59252 204.262 4.62376 205.339 5.10412C203.796 3.84153 206.983 4.23501 207.345 5.20183C209.215 4.46054 207.497 4.15679 205.58 4.18899C206.75 3.44854 205.028 3.84727 204.744 3.22957C205.951 2.85914 210.091 3.17828 208.164 2.18206ZM249.908 9.89305C251.191 9.72889 253.238 9.92129 254.064 9.2759C254.545 8.89906 252.506 8.8379 253.845 8.19037C252.597 8.3613 252.33 8.58903 252.588 9.0186C252.308 9.09979 252.024 9.17991 251.743 9.25959C251.602 9.18443 251.458 9.11083 251.318 9.03579C251.186 9.23484 251.053 9.43235 250.924 9.63077C250.617 9.62302 250.307 9.61559 249.999 9.6066C249.973 9.70265 249.92 9.78904 249.908 9.89305ZM81.8128 5.02559C82.1717 5.01895 82.527 5.01233 82.8859 5.00422C82.8463 4.88747 82.7992 4.76596 82.7539 4.6461C82.7214 4.55138 82.6889 4.45668 82.6563 4.36203C82.8643 4.69842 84.5738 5.26079 85.294 4.89457C85.6561 4.70979 84.8321 4.06397 86.367 3.94121C85.2546 3.9813 84.2242 4.07594 83.1441 4.13679C83.241 3.9444 83.3341 3.74979 83.431 3.55701C83.4303 3.55673 83.4297 3.55645 83.4291 3.55617C83.0703 3.51563 82.7072 3.47326 82.3484 3.43313C82.1689 3.96533 81.9923 4.4955 81.8128 5.02559ZM206.029 13.9639C207.217 13.5295 207.608 13.3225 206.982 12.8573C206.981 12.8572 206.98 12.8571 206.979 12.857C206.547 13.1307 206.116 13.4036 205.684 13.6759C205.798 13.7718 205.912 13.8681 206.029 13.9639ZM153.291 3.37004C150.688 5.84914 156.549 4.33048 155.433 3.48622C155.382 3.4475 153.535 3.64399 153.291 3.37004ZM248.78 4.76184C249.495 4.7438 250.21 4.72764 250.928 4.70971C250.763 4.42501 250.594 4.14112 250.429 3.85609C249.88 4.1569 249.329 4.45984 248.78 4.76184ZM170.382 24.2641C169.676 23.8404 167.778 23.4631 166.799 23.7059C167.285 23.8125 167.771 23.9188 168.257 24.0247C167.323 23.946 166.399 23.8736 165.459 23.7932C165.352 24.2577 166.464 24.122 168.072 24.4565C168.32 24.5108 169.859 25.2807 170.466 24.922C170.588 24.8489 168.886 24.5716 170.105 24.4669C169.588 24.3801 169.139 24.327 168.649 24.2528C168.627 24.1382 168.605 24.0235 168.579 23.9084C169.182 24.0274 169.78 24.1459 170.382 24.2641ZM257.393 9.12374C259.165 9.00353 259.351 8.64845 259.661 8.0212C258.846 8.16684 258.03 8.31121 257.215 8.45629C257.276 8.6781 257.332 8.9005 257.393 9.12374ZM154.659 22.1112C153.702 21.9279 154.08 22.2704 153.686 22.2756C152.194 22.2954 151.218 21.9591 149.754 21.9057C149.857 21.861 149.951 21.819 150.051 21.7756C150.049 21.7754 150.048 21.7753 150.047 21.7751C143.218 20.6406 146.738 21.7872 150.857 22.1944C150.94 22.3158 151.019 22.4368 151.102 22.557C152.963 22.5958 154.679 22.631 154.659 22.1112ZM176.409 3.30477C176.33 3.17882 177.002 2.38011 175.742 2.75277C174.744 3.91954 176.38 3.3417 176.79 3.79105C176.449 3.90275 176.1 4.01146 175.763 4.12327C177.802 4.45453 178.099 4.17736 177.356 3.3239C177.303 3.26652 176.489 3.43027 176.409 3.30477ZM163.011 2.71343C162.731 4.44263 165.304 3.66648 165.21 3.13023C164.855 3.1085 164.579 3.40091 164.202 3.27118C163.822 3.14136 163.725 2.73742 163.011 2.71343ZM236.725 3.26179C236.649 3.2544 235.892 2.56052 235.967 3.10226C236.904 4.38615 238.791 3.56474 238.461 3.11941C237.837 3.13968 237.421 3.33068 236.725 3.26006C236.725 3.26064 236.725 3.26121 236.725 3.26179ZM182.017 25.5897C181.984 25.564 180.127 25.1849 179.87 25.276C179.654 25.3885 179.537 25.5245 179.37 25.6492C180.419 25.6487 182.496 26.0196 182.013 25.5892C182.014 25.5894 182.015 25.5896 182.017 25.5897Z" fill="#2563EB"/>
</svg>
