<svg width="59" height="52" viewBox="0 0 59 52" fill="none" xmlns="http://www.w3.org/2000/svg">
<path d="M12.7095 32.9521V22.2184C12.7095 21.8559 12.4158 21.5623 12.0533 21.5623H6.762C6.47626 21.5623 6.22492 21.7475 6.13761 22.02L3.10829 31.5522C3.08712 31.6157 3.07654 31.6845 3.07654 31.7506V32.9491C3.07654 33.3115 3.37021 33.6052 3.73267 33.6052H12.0505C12.413 33.6052 12.7066 33.3115 12.7066 32.9491L12.7095 32.9521ZM11.3999 32.296H4.39123V31.8515L7.24325 22.872H11.3996L11.3999 32.296Z" fill="currentColor"/>
<path d="M45.4389 37.8524L53.8759 34.6855C54.0188 34.6326 54.1378 34.5321 54.2119 34.3998L58.0322 27.7856C58.2121 27.4734 58.1063 27.0713 57.7915 26.8914L32.9647 12.5572L33.3721 5.71041C33.388 5.46171 33.261 5.22889 33.0467 5.10455L24.3584 0.0883855C24.2076 0.00107569 24.0303 -0.0227307 23.861 0.0222443C23.6943 0.0672206 23.5514 0.175691 23.4641 0.326497L21.5487 3.64415C21.3688 3.95634 21.4746 4.35849 21.7894 4.53838L26.4961 7.25547C26.6813 7.3613 26.8135 7.53591 26.8691 7.74227C26.9247 7.94864 26.8956 8.16558 26.7897 8.35078L16.9453 25.4023C16.7654 25.7145 16.8712 26.1166 17.186 26.2965L21.5779 28.8311V34.6727H19.8344C19.4719 34.6727 19.1783 34.9664 19.1783 35.3289V37.8581H16.6781V20.743C16.6781 19.5788 15.731 18.6317 14.5669 18.6317H5.34958C4.53737 18.6317 3.82567 19.1529 3.58225 19.9255L0.0317481 31.1008L0 43.3977C0 44.5619 0.947126 45.509 2.11126 45.509H5.88398C6.2385 49.0119 9.20427 51.7554 12.7998 51.7554C16.3953 51.7554 19.3611 49.0119 19.7156 45.509H27.8012C28.1557 49.0119 31.1215 51.7554 34.717 51.7554C37.4897 51.7554 39.8893 50.123 41.0031 47.7684C42.1169 50.1231 44.5165 51.7554 47.2892 51.7554C50.8846 51.7554 53.8504 49.0119 54.205 45.509H57.4618C57.8243 45.509 58.118 45.2153 58.118 44.8529V38.5085C58.118 38.1461 57.8243 37.8524 57.4618 37.8524H45.4345L45.4389 37.8524ZM18.4027 25.4864L27.9194 9.0038C28.2024 8.51699 28.2765 7.94817 28.131 7.40315C27.9855 6.85814 27.6363 6.40306 27.1468 6.12266L23.0063 3.73365L24.2657 1.55094L32.039 6.038L31.6315 12.8848C31.6157 13.1334 31.7427 13.3663 31.957 13.4906L56.5671 27.7002L53.1938 33.5445L41.709 37.8543H39.8199L39.0606 37.4151L43.9207 28.9964C44.5028 27.9884 44.1562 26.6973 43.1482 26.1152C42.1402 25.5332 40.8465 25.8798 40.2671 26.8878L35.407 35.3065L33.0444 33.9414L37.9045 25.5226C38.1876 25.0358 38.2616 24.467 38.1161 23.922C37.9706 23.377 37.6214 22.9219 37.132 22.6415C36.6452 22.3584 36.0763 22.2843 35.5313 22.4298C34.9863 22.5753 34.5312 22.9246 34.2508 23.414L29.3907 31.8327L27.0281 30.4676L31.8882 22.0489C32.1713 21.562 32.2454 20.9932 32.0999 20.4482C31.9544 19.9032 31.6051 19.4481 31.1157 19.1677C30.1077 18.5857 28.814 18.9322 28.2346 19.9402L23.3745 28.359L18.4059 25.4911L18.4027 25.4864ZM25.2813 37.8524V35.3231C25.2813 34.9607 24.9876 34.667 24.6252 34.667H22.8817V29.582L37.2003 37.8497H25.2786L25.2813 37.8524ZM24.5061 29.0103L29.3663 20.5916C29.4721 20.4064 29.6467 20.2741 29.8531 20.2186C30.0594 20.163 30.2764 20.1921 30.4616 20.2979C30.6468 20.4038 30.779 20.5784 30.8346 20.7847C30.8902 20.9911 30.8611 21.208 30.7552 21.3932L25.8951 29.812L24.5088 29.013L24.5061 29.0103ZM30.5224 32.4841L35.3825 24.0654C35.4883 23.8802 35.6629 23.7479 35.8693 23.6923C36.0757 23.6368 36.29 23.6659 36.4778 23.7717C36.663 23.8775 36.7953 24.0521 36.8509 24.2585C36.9064 24.4649 36.8773 24.6818 36.7715 24.867L31.9114 33.2858L30.525 32.4867L30.5224 32.4841ZM36.5386 35.9579L41.3988 27.5391C41.6184 27.1581 42.1105 27.0259 42.4914 27.2455C42.8724 27.4651 43.0047 27.9572 42.7851 28.3381L37.925 36.7569L36.5386 35.9579ZM20.4821 35.979H23.969V37.8522H20.4821V35.979ZM1.30657 36.3309H2.38604C2.68764 36.3309 2.93105 36.577 2.93105 36.8759V39.9343C2.93105 40.2359 2.685 40.4793 2.38604 40.4793H1.30657V36.3283V36.3309ZM5.87301 44.1963H2.10821C1.66639 44.1963 1.30921 43.8365 1.30921 43.3973V41.7914H2.38868C3.41254 41.7914 4.24331 40.958 4.24331 39.9368V36.8784C4.24331 35.8545 3.4099 35.0237 2.38868 35.0237H1.30921V31.4018L4.82795 20.322C4.89938 20.0944 5.10839 19.941 5.34914 19.941H14.5664C15.0082 19.941 15.3654 20.3008 15.3654 20.74V38.3415C14.5717 38.024 13.7066 37.8494 12.7991 37.8494C9.16921 37.8494 6.18228 40.6458 5.87513 44.199L5.87301 44.1963ZM18.4002 45.4557C18.3367 46.0113 18.1912 46.5404 17.9769 47.0351L17.3023 46.6462L16.6461 47.7812L17.3208 48.1701C16.9927 48.6093 16.6038 48.9982 16.1646 49.3263L15.7757 48.6516L14.6407 49.3077L15.0296 49.9824C14.5349 50.1967 14.0058 50.3422 13.4502 50.4057V49.6253H12.1406V50.4057C11.585 50.3422 11.0558 50.1967 10.5611 49.9824L10.95 49.3077L9.81503 48.6516L9.42612 49.3263C8.98694 48.9982 8.59799 48.6093 8.26998 48.1701L8.94463 47.7812L8.2885 46.6462L7.61385 47.0351C7.39955 46.5404 7.25404 46.0113 7.19055 45.4557H7.97099V44.1461H7.19055C7.25404 43.5905 7.39955 43.0613 7.61385 42.5666L8.2885 42.9555L8.94463 41.8205L8.26998 41.4316C8.59805 40.9924 8.98696 40.6035 9.42612 40.2755L9.81503 40.9501L10.95 40.294L10.5611 39.6193C11.0559 39.405 11.585 39.2595 12.1406 39.196V39.9765H13.4502V39.196C14.0058 39.2595 14.5349 39.405 15.0296 39.6193L14.6407 40.294L15.7757 40.9501L16.1646 40.2755C16.6038 40.6035 16.9928 40.9924 17.3208 41.4316L16.6461 41.8205L17.3023 42.9555L17.9769 42.5666C18.1912 43.0614 18.3367 43.5905 18.4002 44.1461H17.6198V45.4557H18.4002ZM27.7922 44.1963H19.7203C19.5456 42.1724 18.5006 40.3945 16.9635 39.2383V39.1616H30.6549C29.0596 40.3151 27.9696 42.1274 27.7896 44.1963L27.7922 44.1963ZM40.3194 45.4557C40.2559 46.0113 40.1104 46.5404 39.8961 47.0351L39.2215 46.6462L38.5653 47.7812L39.24 48.1701C38.9119 48.6093 38.523 48.9982 38.0839 49.3263L37.6949 48.6516L36.5599 49.3077L36.9488 49.9824C36.4541 50.1967 35.925 50.3422 35.3694 50.4057V49.6253H34.0598V50.4057C33.5042 50.3422 32.975 50.1967 32.4803 49.9824L32.8693 49.3077L31.7343 48.6516L31.3453 49.3263C30.9062 48.9982 30.5172 48.6093 30.1892 48.1701L30.8638 47.7812L30.2077 46.6462L29.5331 47.0351C29.3188 46.5404 29.1733 46.0113 29.1098 45.4557H29.8902V44.1461H29.1098C29.1733 43.5905 29.3188 43.0613 29.5331 42.5666L30.2077 42.9555L30.8638 41.8205L30.1892 41.4316C30.5173 40.9924 30.9062 40.6035 31.3453 40.2755L31.7343 40.9501L32.8693 40.294L32.4803 39.6193C32.9751 39.405 33.5042 39.2595 34.0598 39.196V39.9765H35.3694V39.196C35.925 39.2595 36.4542 39.405 36.9488 39.6193L36.5599 40.294L37.6949 40.9501L38.0839 40.2755C38.523 40.6035 38.912 40.9924 39.24 41.4316L38.5653 41.8205L39.2215 42.9555L39.8961 42.5666C40.1104 43.0614 40.2559 43.5905 40.3194 44.1461H39.539V45.4557H40.3194ZM38.777 39.1616H43.2297C42.2799 39.8468 41.51 40.7675 41.002 41.8364C40.4967 40.7675 39.7242 39.8494 38.7743 39.1616H38.777ZM52.8945 45.4557C52.831 46.0113 52.6855 46.5404 52.4712 47.0351L51.7966 46.6462L51.1404 47.7812L51.8151 48.1701C51.487 48.6093 51.0981 48.9982 50.6589 49.3263L50.27 48.6516L49.135 49.3077L49.5239 49.9824C49.0292 50.1967 48.5001 50.3422 47.9445 50.4057V49.6253H46.6349V50.4057C46.0793 50.3422 45.5501 50.1967 45.0554 49.9824L45.4443 49.3077L44.3093 48.6516L43.9204 49.3263C43.4812 48.9982 43.0923 48.6093 42.7643 48.1701L43.4389 47.7812L42.7828 46.6462L42.1082 47.0351C41.8939 46.5404 41.7483 46.0113 41.6849 45.4557H42.4653V44.1461H41.6849C41.7483 43.5905 41.8939 43.0613 42.1082 42.5666L42.7828 42.9555L43.4389 41.8205L42.7643 41.4316C43.0924 40.9924 43.4813 40.6035 43.9204 40.2755L44.3093 40.9501L45.4443 40.294L45.0554 39.6193C45.5502 39.405 46.0793 39.2595 46.6349 39.196V39.9765H47.9445V39.196C48.5001 39.2595 49.0292 39.405 49.5239 39.6193L49.135 40.294L50.27 40.9501L50.6589 40.2755C51.0981 40.6035 51.4871 40.9924 51.8151 41.4316L51.1404 41.8205L51.7966 42.9555L52.4712 42.5666C52.6855 43.0614 52.831 43.5905 52.8945 44.1461H52.1141V45.4557H52.8945ZM56.8101 44.1963H54.2147C54.0348 42.1274 52.9474 40.3151 51.3494 39.1616H56.8074V44.1963H56.8101Z" fill="currentColor"/>
<path d="M12.7995 41.2334C10.8338 41.2334 9.23315 42.834 9.23315 44.7998C9.23315 46.7681 10.8338 48.3661 12.7995 48.3661C14.7652 48.3661 16.3659 46.7655 16.3659 44.7998C16.3659 42.834 14.7652 41.2334 12.7995 41.2334ZM12.7995 47.0592C11.5534 47.0592 10.5428 46.0459 10.5428 44.8025C10.5428 43.5564 11.5561 42.5457 12.7995 42.5457C14.0456 42.5457 15.0562 43.559 15.0562 44.8025C15.0562 46.0485 14.0429 47.0592 12.7995 47.0592Z" fill="currentColor"/>
<path d="M34.7187 41.2334C32.753 41.2334 31.1523 42.834 31.1523 44.7998C31.1523 46.7681 32.753 48.3661 34.7187 48.3661C36.6844 48.3661 38.285 46.7655 38.285 44.7998C38.285 42.834 36.6844 41.2334 34.7187 41.2334ZM34.7187 47.0592C33.4726 47.0592 32.462 46.0459 32.462 44.8025C32.462 43.5564 33.4753 42.5457 34.7187 42.5457C35.9648 42.5457 36.9754 43.559 36.9754 44.8025C36.9754 46.0485 35.9621 47.0592 34.7187 47.0592Z" fill="currentColor"/>
<path d="M47.294 41.2334C45.3283 41.2334 43.7277 42.834 43.7277 44.7998C43.7277 46.7681 45.3283 48.3661 47.294 48.3661C49.2597 48.3661 50.8604 46.7655 50.8604 44.7998C50.8604 42.834 49.2597 41.2334 47.294 41.2334ZM47.294 47.0592C46.0479 47.0592 45.0373 46.0459 45.0373 44.8025C45.0373 43.5564 46.0506 42.5457 47.294 42.5457C48.5401 42.5457 49.5507 43.559 49.5507 44.8025C49.5507 46.0485 48.5375 47.0592 47.294 47.0592Z" fill="currentColor"/>
</svg>
