<svg width="28" height="28" viewBox="0 0 28 28" fill="none" xmlns="http://www.w3.org/2000/svg">
<path d="M16.975 2.33337H11.025C8.925 2.33337 8.45835 3.38339 8.19001 4.67839L7.23334 9.2517H20.7667L19.81 4.67839C19.5417 3.38339 19.075 2.33337 16.975 2.33337Z" stroke="#111827" stroke-width="1.5" stroke-linecap="round" stroke-linejoin="round"/>
<path d="M22.4467 16.7067C22.54 17.6984 21.7467 18.55 20.7317 18.55H19.145C18.235 18.55 18.1067 18.165 17.9433 17.675L17.7683 17.1733C17.535 16.485 17.3833 16.0183 16.1583 16.0183H11.83C10.6167 16.0183 10.43 16.5433 10.22 17.1733L10.045 17.675C9.88166 18.1534 9.75333 18.55 8.84333 18.55H7.25666C6.24166 18.55 5.44833 17.6984 5.54166 16.7067L6.02 11.55C6.13667 10.2784 6.38166 9.23999 8.59832 9.23999H19.39C21.6067 9.23999 21.8517 10.2784 21.9683 11.55L22.4467 16.7067Z" stroke="#111827" stroke-width="1.5" stroke-linecap="round" stroke-linejoin="round"/>
<path d="M7.23333 6.70837H6.38167" stroke="#111827" stroke-width="1.5" stroke-linecap="round" stroke-linejoin="round"/>
<path d="M21.6183 6.70837H20.7667" stroke="#111827" stroke-width="1.5" stroke-linecap="round" stroke-linejoin="round"/>
<path d="M8.925 12.635H11.4567" stroke="#111827" stroke-width="1.5" stroke-linecap="round" stroke-linejoin="round"/>
<path d="M16.5433 12.635H19.075" stroke="#111827" stroke-width="1.5" stroke-linecap="round" stroke-linejoin="round"/>
<path d="M14 19.8334V21" stroke="#111827" stroke-width="1.5" stroke-linecap="round" stroke-linejoin="round"/>
<path d="M14 24.5V25.6667" stroke="#111827" stroke-width="1.5" stroke-linecap="round" stroke-linejoin="round"/>
<path d="M3.49999 21L2.33333 25.6667" stroke="#111827" stroke-width="1.5" stroke-linecap="round" stroke-linejoin="round"/>
<path d="M24.5 21L25.6667 25.6667" stroke="#111827" stroke-width="1.5" stroke-linecap="round" stroke-linejoin="round"/>
</svg>
