<svg width="70" height="70" viewBox="0 0 70 70" fill="none" xmlns="http://www.w3.org/2000/svg">
<path d="M66.4754 32.8569L52.1576 30.3677L42.3703 19.8517C41.1725 18.5602 39.4652 17.8223 37.6964 17.8223L19.4315 17.8193C17.1502 17.8193 15.1003 18.9849 13.9347 20.9441L8.91526 29.3984C8.55212 30.0134 8.29149 30.6694 8.12455 31.3547H8.78054C8.93575 31.3547 9.09389 31.3664 9.2491 31.3752C9.59174 31.3957 9.9168 31.4484 10.2389 31.5304C10.3531 31.1555 10.5084 30.7924 10.7075 30.4586L15.7269 22.0042C16.5089 20.6922 17.9028 19.9015 19.4344 19.9015H37.6963C38.8941 19.9015 40.0391 20.4023 40.8503 21.2662L50.8978 32.0634C51.0969 32.2713 51.3663 32.3972 51.6592 32.3972L66.1111 34.907C66.7876 35.0329 67.2766 35.6157 67.2766 36.2922V45.9326H59.9876C59.9876 42.4857 57.1879 39.6861 53.7411 39.6861C50.2943 39.6861 47.4946 42.4857 47.4946 45.9326H27.7093C27.7093 42.4857 24.9096 39.6861 21.4628 39.6861C18.0159 39.6861 15.2163 42.4857 15.2163 45.9326H10.0094V43.6718C10.2379 43.6103 10.4575 43.5253 10.6771 43.4228C10.9905 43.2676 11.2716 43.0802 11.541 42.8606C11.6347 42.7874 11.7167 42.7141 11.8017 42.6321C11.8837 42.5501 11.9569 42.4652 12.0301 42.3832C12.1033 42.3012 12.1765 42.2163 12.2497 42.1226C12.3961 41.9352 12.5191 41.736 12.6246 41.5398C12.6773 41.4461 12.73 41.3407 12.771 41.2265C12.8237 41.121 12.8647 41.0185 12.8969 40.9043C12.9379 40.7989 12.9701 40.7052 12.9906 40.6027C13.0521 40.383 13.0961 40.1546 13.1166 39.9262C13.1283 39.7798 13.1371 39.6451 13.1371 39.4986V37.7914C13.1371 37.6449 13.1253 37.5102 13.1166 37.3638C13.0961 37.1354 13.0551 36.9069 12.9906 36.6873C12.9701 36.5819 12.9379 36.4882 12.8969 36.3857C12.8647 36.2715 12.8237 36.166 12.771 36.0635C12.73 35.9493 12.6773 35.8439 12.6246 35.7502C12.5191 35.5511 12.3961 35.3548 12.2497 35.1674C12.1765 35.0737 12.1033 34.9917 12.0301 34.9068C11.9569 34.8131 11.8749 34.7311 11.7899 34.6579C11.7079 34.5759 11.623 34.5027 11.541 34.4294C11.2716 34.2098 10.9905 34.0224 10.6771 33.8672C10.4575 33.7617 10.2408 33.6797 10.0095 33.6182C9.70782 33.5245 9.39447 33.4718 9.07233 33.4513C8.96691 33.4396 8.8732 33.4396 8.77948 33.4396H7.92438V34.4909C7.92438 35.0415 8.36072 35.5013 8.9142 35.5334C10.112 35.5949 11.0491 36.5847 11.0491 37.7942V39.5015C11.0491 40.7081 10.112 41.6979 8.9142 41.7623C8.36364 41.7945 7.92438 42.2514 7.92438 42.8048V46.9809C7.92438 47.5549 8.39294 48.0234 8.96691 48.0234H16.3585C16.6718 48.0234 16.9735 47.877 17.1697 47.6368C17.3688 47.3879 17.4391 47.0629 17.3776 46.7612C17.3249 46.5123 17.2956 46.2399 17.2956 45.9382C17.2956 43.6364 19.1581 41.7739 21.4599 41.7739C23.7617 41.7739 25.6243 43.6364 25.6243 45.9382C25.6243 46.2399 25.5921 46.5122 25.5423 46.7612C25.4808 47.0628 25.554 47.385 25.7502 47.6368C25.9493 47.877 26.251 48.0234 26.5614 48.0234H48.6362C48.9496 48.0234 49.2512 47.877 49.4474 47.6368C49.6465 47.3879 49.7168 47.0629 49.6553 46.7612C49.6026 46.5123 49.5733 46.2399 49.5733 45.9382C49.5733 43.6364 51.4359 41.7739 53.7377 41.7739C56.0395 41.7739 57.902 43.6364 57.902 45.9382C57.902 46.2399 57.8698 46.5122 57.82 46.7612C57.7585 47.0628 57.8317 47.385 58.0279 47.6368C58.2271 47.877 58.5287 48.0234 58.8391 48.0234H68.316C68.89 48.0234 69.3586 47.5548 69.3586 46.9809V36.2977C69.3586 34.6109 68.152 33.1642 66.474 32.8626L66.4754 32.8569Z" fill="currentColor"/>
<path d="M51.6606 32.3965H19.3823C19.0807 32.3965 18.7878 32.2618 18.5916 32.0334C18.3925 31.805 18.3105 31.4916 18.3515 31.19L20.3809 18.694C20.4629 18.1932 20.9022 17.8184 21.4117 17.8184H37.6974C39.4663 17.8184 41.1765 18.5563 42.3713 19.8478L52.4188 30.6449C52.6999 30.9466 52.7732 31.3946 52.6179 31.7695C52.451 32.1443 52.0762 32.3933 51.6603 32.3933L51.6606 32.3965ZM20.6096 30.3144H49.2735L40.8514 21.2655C40.0402 20.4017 38.8952 19.9009 37.6974 19.9009H22.2964L20.6096 30.3144Z" fill="currentColor"/>
<path d="M30.8354 32.3967C30.2615 32.3967 29.7929 31.9281 29.7929 31.3542V18.8582C29.7929 18.2842 30.2615 17.8157 30.8354 17.8157C31.4094 17.8157 31.878 18.2842 31.878 18.8582V31.3542C31.878 31.9282 31.4094 32.3967 30.8354 32.3967Z" fill="currentColor"/>
<path d="M53.7425 52.1818C50.7759 52.1818 48.2018 50.0791 47.619 47.1828C47.537 46.8079 47.493 46.3804 47.493 45.9323C47.493 42.4854 50.2927 39.6858 53.7395 39.6858C57.1863 39.6858 59.986 42.4855 59.986 45.9323C59.986 46.3803 59.945 46.8079 59.8601 47.1915C59.2773 50.0762 56.7061 52.1788 53.7365 52.1788L53.7425 52.1818ZM53.7425 41.7677C51.4407 41.7677 49.5782 43.6303 49.5782 45.9321C49.5782 46.2337 49.6104 46.506 49.6602 46.755C50.0555 48.7025 51.7745 50.0964 53.7425 50.0964C55.7104 50.0964 57.4383 48.7024 57.8248 46.7638C57.8775 46.5031 57.9068 46.222 57.9068 45.9321C57.9068 43.6303 56.0443 41.7677 53.7425 41.7677Z" fill="currentColor"/>
<path d="M21.4642 52.1818C18.4976 52.1818 15.9235 50.0791 15.3406 47.1828C15.2586 46.8079 15.2147 46.3804 15.2147 45.9323C15.2147 42.4854 18.0144 39.6858 21.4612 39.6858C24.908 39.6858 27.7077 42.4855 27.7077 45.9323C27.7077 46.3803 27.6667 46.8079 27.5818 47.1915C26.999 50.0762 24.4278 52.1788 21.4582 52.1788L21.4642 52.1818ZM21.4642 41.7677C19.1624 41.7677 17.2998 43.6303 17.2998 45.9321C17.2998 46.2337 17.332 46.506 17.3818 46.755C17.7772 48.7025 19.4962 50.0964 21.4642 50.0964C23.4321 50.0964 25.16 48.7024 25.5465 46.7638C25.5992 46.5031 25.6285 46.222 25.6285 45.9321C25.6285 43.6303 23.766 41.7677 21.4642 41.7677Z" fill="currentColor"/>
<path d="M13.1125 37.3634C13.092 37.135 13.051 36.9066 12.9866 36.6869C12.9661 36.5815 12.9339 36.4878 12.8929 36.3853C12.8607 36.2711 12.8197 36.1657 12.767 36.0632C12.726 35.9489 12.6732 35.8435 12.6205 35.7498C12.5151 35.5507 12.3921 35.3545 12.2457 35.167C12.1725 35.0733 12.0993 34.9913 12.026 34.9064C11.9528 34.8127 11.8708 34.7307 11.7859 34.6575C11.7039 34.5755 11.619 34.5023 11.537 34.429C11.2676 34.2006 10.9747 34.0132 10.6731 33.8668C10.4535 33.7614 10.2368 33.6793 10.0054 33.6179C9.70377 33.5241 9.39042 33.4714 9.06828 33.4509C8.96286 33.4392 8.86915 33.4392 8.77544 33.4392H3.76183C3.18785 33.4392 2.7193 33.9078 2.7193 34.4817V42.8101C2.7193 43.3841 3.18786 43.8527 3.76183 43.8527H8.78128C8.875 43.8527 8.96871 43.8527 9.07413 43.841C9.39627 43.8205 9.70962 43.7677 10.0113 43.674C10.2397 43.6125 10.4593 43.5276 10.679 43.4251C10.9806 43.2787 11.2734 43.0913 11.5428 42.8628C11.6365 42.7896 11.7185 42.7164 11.8035 42.6344C11.8855 42.5524 11.9587 42.4675 12.0319 42.3855C12.1051 42.3035 12.1783 42.2186 12.2515 42.1248C12.398 41.9374 12.521 41.7383 12.6264 41.5421C12.6791 41.4484 12.7318 41.3429 12.7728 41.2287C12.8255 41.1233 12.8665 41.0208 12.8987 40.9066C12.9397 40.8012 12.9719 40.7074 12.9924 40.6049C13.0539 40.3853 13.0979 40.1569 13.1184 39.9285C13.1301 39.782 13.1389 39.6473 13.1389 39.5009V37.7936C13.1389 37.6472 13.1272 37.5125 13.1184 37.3661L13.1125 37.3634ZM8.91593 41.7562C8.91593 41.7562 8.82222 41.7562 8.78122 41.7679H4.80429V35.5214H8.80168C8.80168 35.5214 8.8749 35.5331 8.91589 35.5331C10.1137 35.5946 11.0508 36.5844 11.0508 37.7939V39.5012C11.0508 40.7078 10.1137 41.6976 8.91589 41.762L8.91593 41.7562Z" fill="currentColor"/>
<path d="M3.76151 41.7677H1.67937C1.10538 41.7677 0.636841 41.2991 0.636841 40.7251C0.636841 40.1512 1.1054 39.6826 1.67937 39.6826H3.76151C4.33549 39.6826 4.80404 40.1512 4.80404 40.7251C4.80404 41.2991 4.33548 41.7677 3.76151 41.7677Z" fill="currentColor"/>
<path d="M3.76151 37.6041H1.67937C1.10538 37.6041 0.636841 37.1355 0.636841 36.5616C0.636841 35.9876 1.1054 35.519 1.67937 35.519H3.76151C4.33549 35.519 4.80404 35.9876 4.80404 36.5616C4.80404 37.1355 4.33548 37.6041 3.76151 37.6041Z" fill="currentColor"/>
<path d="M67.7993 38.6429C64.8122 38.6429 62.3523 36.3938 62.0946 33.4272C62.0624 33.1051 62.1883 32.7917 62.4284 32.5721C62.6685 32.3525 62.9907 32.2588 63.3128 32.3115L66.4786 32.862C68.1537 33.1637 69.3632 34.6016 69.3632 36.2972V37.5769C69.3632 38.0982 68.9766 38.5462 68.4583 38.6077C68.2504 38.6399 68.0308 38.6487 67.8023 38.6487L67.7993 38.6429ZM64.5926 34.6455C65.1343 35.6353 66.1242 36.3528 67.278 36.5197V36.2913C67.278 35.6148 66.7889 35.032 66.1124 34.9061L64.5926 34.6455Z" fill="currentColor"/>
<path d="M35.2811 44.3834C34.9794 44.3834 34.6778 44.2486 34.4699 43.988C34.1067 43.54 34.177 42.8839 34.6368 42.5209L37.5302 40.1985L35.0732 39.7095C34.6779 39.6275 34.3645 39.3229 34.262 38.9393C34.1566 38.5527 34.303 38.1369 34.6252 37.8762L39.2698 34.16C39.7179 33.8056 40.3739 33.8671 40.7369 34.3269C41.1001 34.7837 41.0298 35.431 40.57 35.7941L37.6766 38.1164L40.1336 38.6055C40.529 38.6875 40.8423 38.992 40.9448 39.3756C41.0502 39.7622 40.9038 40.178 40.5817 40.4387L35.937 44.1549C35.7496 44.3102 35.5212 44.3834 35.2928 44.3834L35.2811 44.3834Z" fill="currentColor"/>
</svg>
