<svg width="70" height="70" viewBox="0 0 70 70" fill="none" xmlns="http://www.w3.org/2000/svg">
<path fill-rule="evenodd" clip-rule="evenodd" d="M6.89848 48.8846C7.82413 51.8477 10.5955 54 13.8539 54C17.8784 54 21.1453 50.7258 21.1453 46.6924C21.1453 42.6589 17.8784 39.3847 13.8539 39.3847C9.82935 39.3847 6.56241 42.6589 6.56241 46.6924C6.56241 46.9378 6.57666 47.1833 6.59944 47.4231H4.95886C3.02495 47.4231 1.45838 45.8531 1.45838 43.9177V38.1829C1.8315 37.7119 2.69166 36.5273 3.25849 35.0115C3.56611 34.198 3.78257 33.2902 3.8139 32.3482C5.97859 31.4805 9.19419 28.9999 9.19419 28.9999C9.36224 28.8714 9.46477 28.6773 9.47901 28.4689C9.49325 28.2606 9.4135 28.055 9.26824 27.9066L8.29702 26.9389C7.847 26.485 7.23466 26.231 6.59097 26.231H5.48303C7.0154 24.4326 8.955 22.3117 10.6611 20.9557C10.8292 20.8273 10.9232 20.6332 10.9374 20.4248C10.9517 20.2164 10.8719 20.0137 10.7266 19.8653L10.2738 19.42C14.6344 18.6693 19.2714 17.4618 28.4368 17.4618C39.2063 17.4618 44.3613 22.7541 49.0636 27.4784C49.1661 27.5811 49.3029 27.6525 49.451 27.681C54.4154 28.6173 59.2718 29.5679 62.8833 31.3462C63.2251 31.5147 63.5612 31.6917 63.883 31.8772C63.3447 31.7773 62.7466 31.6802 62.0744 31.5917C61.7383 31.5461 61.237 31.7288 60.7471 32.1398C60.018 32.7564 59.209 33.8326 59.209 33.8326C59.0923 33.9896 59.041 34.1894 59.0695 34.3863C59.1065 34.5804 59.209 34.7546 59.3685 34.8688C59.3685 34.8688 62.5699 37.1181 65.4353 37.9003C66.8138 38.2771 67.8135 38.2571 68.4601 38.14C68.5113 38.5226 68.5398 38.9222 68.5398 39.3361C68.5398 39.3418 68.0955 42.8929 68.0955 42.8929C67.9046 44.4058 67.9929 45.9415 68.3347 47.423H68.0072C66.7312 46.6608 65.9279 45.5133 65.646 45.0651C65.9308 42.713 67.0103 40.4265 67.0103 40.4265C67.184 40.0639 67.0331 39.6272 66.6685 39.4531C66.3039 39.2818 65.8653 39.436 65.7001 39.8013C65.7001 39.8013 64.4326 42.4846 64.1764 45.1593C64.1621 45.3049 64.1906 45.4533 64.2561 45.5818C64.2561 45.5818 64.7517 46.4781 65.6859 47.4229H63.4358C63.0342 47.4229 62.7067 47.7512 62.7067 48.1537C62.7067 48.5562 63.0342 48.8845 63.4358 48.8845H69.269C69.269 48.8845 70.1577 48.7075 69.9753 47.9682C69.9611 47.9139 69.8871 47.6285 69.7931 47.2517C69.457 45.8872 69.3715 44.4685 69.5453 43.0726C69.7503 41.4255 69.9896 39.4758 69.9896 39.4758C69.9981 39.4444 69.9981 39.413 69.9981 39.3845C69.9981 34.8115 67.4547 31.9657 63.5241 30.03C59.8642 28.2316 54.9712 27.2354 49.938 26.2848C45.0476 21.3749 39.6074 16 28.4369 16C18.1632 16 13.5179 17.4958 8.64716 18.2008C8.37088 18.2408 8.14302 18.4321 8.05758 18.6947C7.96929 18.9573 8.04334 19.2456 8.23132 19.4425L9.12853 20.3389C6.89837 22.2714 4.4033 25.203 2.91658 27.0357C2.0564 28.089 1.7716 29.5049 2.16468 30.8123C2.54349 32.1054 2.30425 33.4042 1.89695 34.4975C1.25325 36.2132 0.182286 37.4406 0.182286 37.4406C0.0655065 37.5747 0 37.746 0 37.923V43.9175C0 46.6607 2.21595 48.8844 4.95877 48.8844L6.89848 48.8846ZM47.4317 47.4231H22.6035C22.2019 47.4231 21.8744 47.7514 21.8744 48.1539C21.8744 48.5564 22.2019 48.8846 22.6035 48.8846H47.7306C48.6563 51.8477 51.4276 54 54.686 54C58.7106 54 61.9775 50.7258 61.9775 46.6924C61.9775 42.6589 58.7106 39.3847 54.686 39.3847C50.6615 39.3847 47.3946 42.6589 47.3946 46.6924C47.3946 46.9378 47.4089 47.1833 47.4317 47.4231ZM13.8538 40.8462C17.0695 40.8462 19.687 43.4667 19.687 46.6924C19.687 49.918 17.0695 52.5385 13.8538 52.5385C10.6381 52.5385 8.02063 49.918 8.02063 46.6924C8.02063 43.4667 10.6381 40.8462 13.8538 40.8462ZM54.686 40.8462C57.9016 40.8462 60.5191 43.4667 60.5191 46.6924C60.5191 49.918 57.9016 52.5385 54.686 52.5385C51.4703 52.5385 48.8528 49.918 48.8528 46.6924C48.8528 43.4667 51.4703 40.8462 54.686 40.8462ZM54.686 42.3078C52.2735 42.3078 50.3111 44.2717 50.3111 46.6924C50.3111 49.113 52.2735 51.0769 54.686 51.0769C57.0984 51.0769 59.0608 49.113 59.0608 46.6924C59.0608 44.2717 57.0984 42.3078 54.686 42.3078ZM13.8538 42.3078C11.4413 42.3078 9.47892 44.2717 9.47892 46.6924C9.47892 49.113 11.4413 51.0769 13.8538 51.0769C16.2663 51.0769 18.2287 49.113 18.2287 46.6924C18.2287 44.2717 16.2663 42.3078 13.8538 42.3078ZM54.686 43.7693C56.298 43.7693 57.6025 45.0796 57.6025 46.6924C57.6025 48.3052 56.298 49.6154 54.686 49.6154C53.0739 49.6154 51.7694 48.3052 51.7694 46.6924C51.7694 45.0796 53.0739 43.7693 54.686 43.7693ZM13.8538 43.7693C15.4659 43.7693 16.7704 45.0796 16.7704 46.6924C16.7704 48.3052 15.4659 49.6154 13.8538 49.6154C12.2417 49.6154 10.9372 48.3052 10.9372 46.6924C10.9372 45.0796 12.2417 43.7693 13.8538 43.7693ZM28.4367 43.8093C27.0297 43.6151 25.7024 43.0186 24.6172 42.0822C22.894 40.5693 21.1082 39.0849 18.8923 37.7919C18.8837 37.7919 18.8837 37.7919 18.8837 37.789C17.3969 36.9441 15.6852 36.4616 13.8538 36.4616C9.60994 36.4616 5.97245 39.0593 4.43176 42.7531C4.28081 43.1242 4.45455 43.5524 4.81912 43.7094C5.19224 43.8635 5.62235 43.6894 5.77613 43.3154C7.09486 40.1498 10.2165 37.9232 13.8536 37.9232C15.4201 37.9232 16.887 38.3371 18.163 39.0593C20.2935 40.301 22.0052 41.7311 23.6543 43.187C23.6543 43.1898 23.6629 43.1898 23.6629 43.1927C25.1781 44.5029 27.0978 45.2593 29.103 45.3364C34.4263 45.5477 45.298 45.9644 45.298 45.9644C45.6626 45.9787 45.9845 45.7133 46.0414 45.345C46.1496 44.6399 46.349 43.9606 46.611 43.3212C47.9269 40.1526 51.0485 37.9232 54.6856 37.9232C57.7987 37.9232 60.5415 39.5589 62.085 42.0195C62.3043 42.3592 62.7571 42.462 63.0904 42.2479C63.435 42.0309 63.5376 41.5799 63.3268 41.2402C61.5181 38.3685 58.3224 36.4617 54.685 36.4617C50.4411 36.4617 46.8036 39.0622 45.2629 42.756C45.0294 43.3069 44.8471 43.8807 44.7161 44.4744C42.4489 44.3888 34.5904 44.0862 29.894 43.9007V32.0769C29.894 31.6744 29.5665 31.3461 29.1649 31.3461C28.7633 31.3461 28.4357 31.6744 28.4357 32.0769L28.4367 43.8093ZM66.6374 34.0835C66.1845 33.9151 64.6892 33.4213 61.9777 33.0501C61.8894 33.1101 61.6046 33.3128 61.4308 33.4869C61.2258 33.6867 61.0292 33.9065 60.8612 34.1035C61.8752 34.7572 63.923 35.9704 65.8114 36.487C66.8539 36.7696 67.6485 36.7496 68.1299 36.684C67.8024 35.702 67.2983 34.8428 66.6346 34.0863L66.6374 34.0835ZM32.0824 33.5383H34.9905C35.3978 33.5383 35.7196 33.21 35.7196 32.8075C35.7196 32.405 35.3978 32.0768 34.9905 32.0768H32.0824C31.6808 32.0768 31.3533 32.405 31.3533 32.8075C31.3533 33.21 31.6808 33.5383 32.0824 33.5383ZM17.4995 33.5383H20.4076C20.8149 33.5383 21.1367 33.21 21.1367 32.8075C21.1367 32.405 20.8149 32.0768 20.4076 32.0768H17.4995C17.0979 32.0768 16.7704 32.405 16.7704 32.8075C16.7704 33.21 17.0979 33.5383 17.4995 33.5383ZM4.27209 27.6836C4.19234 27.7778 4.11829 27.8663 4.04709 27.9548V27.9577C3.49168 28.637 3.30941 29.5505 3.56573 30.3926V30.3954C3.60276 30.5381 3.63979 30.6809 3.67397 30.8236C5.04396 30.1956 6.73011 29.0166 7.64154 28.3459L7.26842 27.9748C7.08614 27.7921 6.84689 27.6922 6.59054 27.6922H4.3746C4.33757 27.6922 4.30057 27.6893 4.27209 27.6836ZM15.1349 20.7556L12.5316 24.338C12.3066 24.6549 12.3636 25.0945 12.6712 25.3371C12.6712 25.3371 13.9614 26.3734 15.0039 27.2126C15.9808 27.9919 17.1828 28.4315 18.4246 28.46C24.8986 28.6113 47.9266 29.1508 47.9266 29.1508C48.2256 29.1565 48.5019 28.9824 48.6187 28.7083C48.7355 28.4343 48.67 28.1146 48.4592 27.9033C43.8935 23.3189 38.8775 18.1922 28.4361 18.1922C20.6262 18.1922 16.115 19.0771 12.2556 19.7993C11.8626 19.8735 11.6005 20.256 11.6718 20.6528C11.7458 21.0496 12.1303 21.3094 12.5262 21.2351C13.3579 21.0781 14.2178 20.9155 15.1349 20.7556ZM29.2278 19.6652L29.8317 27.2666C37.4651 27.4464 46.1346 27.6491 46.1346 27.6491C42.2325 23.784 37.6583 19.8935 29.2301 19.6648L29.2278 19.6652ZM27.761 19.6566C23.2836 19.6851 19.9453 20.0163 17.1738 20.4273L14.1177 24.6378L15.912 26.0765C16.6326 26.656 17.5299 26.9814 18.4555 27.0042C18.4555 27.0042 22.9756 27.1098 28.3646 27.2354L27.761 19.6566Z" fill="white"/>
</svg>
