<svg width="70" height="70" viewBox="0 0 70 70" fill="none" xmlns="http://www.w3.org/2000/svg">
<path d="M16.828 45.9928C14.6105 45.9928 12.8069 47.8681 12.8069 50.1736C12.8069 52.4792 14.6105 54.3544 16.828 54.3544C19.0454 54.3544 20.849 52.4792 20.849 50.1736C20.849 47.8681 19.0454 45.9928 16.828 45.9928ZM16.828 52.1853C15.7613 52.1853 14.8931 51.2827 14.8931 50.1736C14.8931 49.0646 15.7613 48.1619 16.828 48.1619C17.8947 48.1619 18.7628 49.0646 18.7628 50.1736C18.7628 51.2827 17.8947 52.1853 16.828 52.1853ZM53.1624 45.9928C50.9449 45.9928 49.1413 47.8681 49.1413 50.1736C49.1413 52.4792 50.9449 54.3544 53.1624 54.3544C55.3798 54.3544 57.1835 52.4792 57.1835 50.1736C57.1835 47.8681 55.3798 45.9928 53.1624 45.9928ZM53.1624 52.1853C52.0957 52.1853 51.2276 51.2827 51.2276 50.1736C51.2276 49.0646 52.0957 48.1619 53.1624 48.1619C54.2291 48.1619 55.0972 49.0646 55.0972 50.1736C55.0972 51.2827 54.2291 52.1853 53.1624 52.1853ZM69.3776 33.342L63.9804 20.8345C63.4285 19.5575 62.2037 18.7318 60.8544 18.7318H41.3882V12.0845C41.3882 11.4863 40.9204 11 40.3451 11H1.04309C0.467687 11 0 11.4863 0 12.0845V50.1732C0 50.7714 0.467722 51.2577 1.04309 51.2577H8.41222C8.92705 55.6134 12.5039 59 16.8312 59C21.1584 59 24.732 55.6134 25.2501 51.2577H44.7499C45.2647 55.6134 48.8416 59 53.1689 59C57.4961 59 61.0696 55.6134 61.5878 51.2577H68.9569C69.5323 51.2577 70 50.7714 70 50.1732V36.3186C70 35.2831 69.7947 34.2825 69.3876 33.3378L69.3776 33.342ZM67.3385 33.9088H53.1657C52.099 33.9088 51.2308 33.0062 51.2308 31.8971V25.2463H63.5999L67.3382 33.9123L67.3385 33.9088ZM22.3831 43.5163H39.3021V49.0896H25.2438C24.9813 46.8714 23.9248 44.9122 22.3803 43.5163H22.3831ZM39.3021 13.1695V41.3471H2.08643V13.1695H39.3021ZM2.08643 43.5163H11.276C9.73147 44.9122 8.67495 46.8714 8.41248 49.0896H2.08643V43.5163ZM16.8278 56.8317C13.298 56.8317 10.4244 53.8439 10.4244 50.1739C10.4244 46.5038 13.298 43.5161 16.8278 43.5161C20.3576 43.5161 23.2312 46.5038 23.2312 50.1739C23.2312 53.8439 20.3576 56.8317 16.8278 56.8317ZM53.1622 56.8317C49.6324 56.8317 46.7588 53.8439 46.7588 50.1739C46.7588 46.5038 49.6324 43.5161 53.1622 43.5161C56.692 43.5161 59.5656 46.5038 59.5656 50.1739C59.5656 53.8439 56.692 56.8317 53.1622 56.8317ZM61.5812 49.0894C61.0663 44.7336 57.4894 41.3471 53.1622 41.3471C48.835 41.3471 45.2614 44.7336 44.7433 49.0894H41.3851V20.8975H60.8514C61.3797 20.8975 61.8575 21.2194 62.0728 21.7196L62.6583 23.0771H50.1816C49.6062 23.0771 49.1385 23.5634 49.1385 24.1616V31.8969C49.1385 34.2025 50.9422 36.0777 53.1596 36.0777H67.8915C67.8949 36.1582 67.905 36.2387 67.905 36.3191V38.8241H63.9748C63.3994 38.8241 62.9317 39.3104 62.9317 39.9087V43.0994C62.9317 44.7227 64.2003 46.0417 65.7616 46.0417H67.9051V49.0924H61.579L61.5812 49.0894ZM67.9038 40.9936V43.8729H65.7603C65.3498 43.8729 65.0167 43.5266 65.0167 43.0997V40.9936L67.9038 40.9936ZM7.86066 34.2589V20.2575C7.86066 19.6592 8.32838 19.1729 8.90374 19.1729C9.47914 19.1729 9.94683 19.6592 9.94683 20.2575V34.2589C9.94683 34.8572 9.4791 35.3434 8.90374 35.3434C8.32834 35.3434 7.86066 34.8571 7.86066 34.2589ZM15.7211 34.2589V20.2575C15.7211 19.6592 16.1888 19.1729 16.7641 19.1729C17.3395 19.1729 17.8072 19.6592 17.8072 20.2575V34.2589C17.8072 34.8572 17.3395 35.3434 16.7641 35.3434C16.1887 35.3434 15.7211 34.8571 15.7211 34.2589ZM31.4418 34.2589V20.2575C31.4418 19.6592 31.9096 19.1729 32.4849 19.1729C33.0603 19.1729 33.528 19.6592 33.528 20.2575V34.2589C33.528 34.8572 33.0603 35.3434 32.4849 35.3434C31.9095 35.3434 31.4418 34.8571 31.4418 34.2589ZM23.5815 34.2589V20.2575C23.5815 19.6592 24.0492 19.1729 24.6245 19.1729C25.1999 19.1729 25.6676 19.6592 25.6676 20.2575V34.2589C25.6676 34.8572 25.1999 35.3434 24.6245 35.3434C24.0491 35.3434 23.5815 34.8571 23.5815 34.2589Z" fill="currentColor"/>
</svg>
