<svg width="70" height="70" viewBox="0 0 42 42" fill="none" xmlns="http://www.w3.org/2000/svg">
    <path d="M38.5586 31.3326C37.8522 30.6052 36.9043 30.2046 35.8903 30.2046C34.8765 30.2046 33.9286 30.6049 33.2223 31.3326L32.2597 32.3238C31.9021 32.6918 31.4228 32.8947 30.9094 32.8947C30.3964 32.8947 29.9171 32.692 29.5593 32.3238L28.5967 31.3326C27.8904 30.6052 26.9425 30.2046 25.9287 30.2046C24.9147 30.2046 23.9668 30.6049 23.2601 31.3328L22.2981 32.3238C21.9405 32.6918 21.4612 32.8947 20.9478 32.8947C20.4343 32.8947 19.9552 32.692 19.5977 32.324L18.6351 31.3326C17.9287 30.6052 16.9809 30.2046 15.9671 30.2046C14.953 30.2046 14.0052 30.6049 13.2988 31.3326L12.3362 32.3238C11.9787 32.6918 11.4993 32.8947 10.9859 32.8947C10.4727 32.8947 9.99337 32.692 9.63585 32.3238L8.67326 31.3326C7.96687 30.6052 7.01925 30.2046 6.00521 30.2046C4.99117 30.2046 4.04355 30.6049 3.3306 31.3394L1.59705 33.1617C1.24713 33.5292 1.26183 34.1106 1.62933 34.4605C1.99736 34.8102 2.57906 34.796 2.92818 34.428L4.65543 32.6125C5.01296 32.2445 5.49228 32.0416 6.00573 32.0418C6.51892 32.0418 6.99825 32.2442 7.35577 32.6125L8.31836 33.6037C9.02475 34.3311 9.97237 34.7319 10.9867 34.7319C12.0007 34.7319 12.9483 34.3314 13.655 33.6037L14.6176 32.6125C14.9748 32.2445 15.4544 32.0418 15.9679 32.0418C16.4808 32.0418 16.9604 32.2442 17.3176 32.6122L18.2802 33.6037C18.9866 34.3311 19.9345 34.7319 20.9485 34.7319C21.9626 34.7319 22.9105 34.3314 23.6171 33.6034L24.5792 32.6125C24.9364 32.2445 25.416 32.0418 25.9295 32.0418C26.4424 32.0418 26.922 32.2442 27.2795 32.6125L28.2421 33.6037C28.9485 34.3311 29.8961 34.7319 30.9102 34.7319C31.9245 34.7319 32.8721 34.3314 33.5785 33.6037L34.5411 32.6125C34.8983 32.2445 35.3779 32.0418 35.8911 32.0418C36.4043 32.0418 36.8839 32.2442 37.2414 32.6125L39.0109 34.4348C39.364 34.7983 39.9459 34.807 40.31 34.4537C40.6741 34.1001 40.6825 33.5184 40.3289 33.1546L38.5586 31.3326Z" fill="currentColor"/>
    <path d="M40.7431 20.7989C40.5749 20.5317 40.2814 20.3697 39.9656 20.3697H39.1303V16.8336V12.379C39.1303 12.0164 38.8366 11.7227 38.4741 11.7227H32.2032V7.92407C32.2032 7.56156 31.9095 7.26782 31.547 7.26782H24.6199H17.6928C17.3302 7.26782 17.0365 7.56156 17.0365 7.92407V12.379V16.8338V20.0988C16.2065 19.8059 15.4662 19.284 14.9003 18.5732L14.0335 17.4841C13.8592 17.2651 13.5946 17.1373 13.3148 17.1373H12.7612L10.3105 12.2359C10.1548 11.9246 9.83665 11.728 9.48884 11.728H7.9834V9.21636C7.9834 8.70895 7.57207 8.29761 7.06465 8.29761H3.74954C3.24213 8.29761 2.83079 8.70895 2.83079 9.21636V12.6467V17.1373H2.03437C1.72645 17.1373 1.43902 17.2914 1.26865 17.5481C1.09829 17.8048 1.0681 18.1295 1.1878 18.413L3.46972 23.8221C4.15327 25.4431 3.99367 27.2942 3.04263 28.7737C2.94734 28.9217 2.89668 29.0944 2.89668 29.2706V30.8485C3.42063 30.3216 4.04827 29.9441 4.73418 29.7365V29.5302C5.12583 28.8658 5.39988 28.151 5.56 27.4147C5.57234 27.4152 5.58389 27.4184 5.59649 27.4184H36.0079L34.9359 29.6549C35.2456 29.5864 35.5645 29.548 35.8903 29.548C36.2568 29.548 36.614 29.5976 36.9597 29.684L40.7941 21.6856C40.9306 21.4008 40.9111 21.0661 40.7431 20.7989ZM32.2032 13.0352H37.8178V16.1776H32.2032V13.0352ZM32.2032 17.4898H37.8178V20.3697H32.2032V17.4898ZM25.2761 8.58032H30.891V11.7227H25.2761V8.58032ZM25.2761 13.0352H30.891V16.1776H25.2761V13.0352ZM25.2761 17.4898H30.891V20.3697H25.2761V17.4898ZM18.349 8.58032H23.9636V11.7227H18.349V8.58032ZM18.349 13.0352H23.9636V16.1776H18.349V13.0352ZM18.349 17.4898H23.9636V20.3697H18.627C18.5338 20.3697 18.4411 20.3668 18.349 20.3616V17.4898ZM4.66829 10.1351H6.14564V11.728H4.66829V10.1351ZM4.66829 13.5655H7.06439H8.92079L10.7068 17.1373H4.66829V13.5655ZM36.8889 25.5811H5.71908C5.68233 24.7419 5.49884 23.9043 5.16284 23.1081L3.41932 18.9748H12.1905C12.1918 18.9748 12.1929 18.9751 12.1942 18.9751C12.195 18.9751 12.1957 18.9748 12.1963 18.9748H12.8719L13.4628 19.7174C14.7223 21.2998 16.6047 22.2072 18.627 22.2072H38.5061L36.8889 25.5811Z" fill="currentColor"/>
    <path d="M8.30131 14.6951H5.82751C5.465 14.6951 5.17126 14.9888 5.17126 15.3513C5.17126 15.7138 5.465 16.0076 5.82751 16.0076H8.30131C8.66383 16.0076 8.95756 15.7138 8.95756 15.3513C8.95756 14.9888 8.66383 14.6951 8.30131 14.6951Z" fill="currentColor"/>
    <path d="M6.68854 22.087C7.12955 22.087 7.48706 21.7295 7.48706 21.2885C7.48706 20.8475 7.12955 20.49 6.68854 20.49C6.24753 20.49 5.89001 20.8475 5.89001 21.2885C5.89001 21.7295 6.24753 22.087 6.68854 22.087Z" fill="currentColor"/>
    <path d="M12.1934 22.087C12.6344 22.087 12.9919 21.7295 12.9919 21.2885C12.9919 20.8475 12.6344 20.49 12.1934 20.49C11.7524 20.49 11.3949 20.8475 11.3949 21.2885C11.3949 21.7295 11.7524 22.087 12.1934 22.087Z" fill="currentColor"/>
    <path d="M9.44084 20.4902C9.00063 20.4902 8.64258 20.8483 8.64258 21.2888C8.64258 21.7292 9.00063 22.0873 9.44084 22.0873C9.88105 22.0873 10.2394 21.7292 10.2394 21.2888C10.2394 20.8483 9.88105 20.4902 9.44084 20.4902Z" fill="currentColor"/>
</svg>